<?xml version="1.0" encoding="UTF-8" standalone="no"?>
<!-- Created with Inkscape (http://www.inkscape.org/) -->

<svg
   xmlns:dc="http://purl.org/dc/elements/1.1/"
   xmlns:cc="http://creativecommons.org/ns#"
   xmlns:rdf="http://www.w3.org/1999/02/22-rdf-syntax-ns#"
   xmlns:svg="http://www.w3.org/2000/svg"
   xmlns="http://www.w3.org/2000/svg"
   xmlns:sodipodi="http://sodipodi.sourceforge.net/DTD/sodipodi-0.dtd"
   xmlns:inkscape="http://www.inkscape.org/namespaces/inkscape"
   width="28"
   height="28"
   viewBox="0 0 7.4083338 7.4083335"
   version="1.1"
   id="svg8"
   inkscape:version="0.92.2 (5c3e80d, 2017-08-06)"
   sodipodi:docname="amazon-logo.svg">
  <defs
     id="defs2" />
  <sodipodi:namedview
     id="base"
     pagecolor="#ffffff"
     bordercolor="#666666"
     borderopacity="1.0"
     inkscape:pageopacity="0.0"
     inkscape:pageshadow="2"
     inkscape:zoom="5.6"
     inkscape:cx="18.839235"
     inkscape:cy="36.221219"
     inkscape:document-units="mm"
     inkscape:current-layer="layer1"
     showgrid="false"
     inkscape:window-width="1260"
     inkscape:window-height="787"
     inkscape:window-x="0"
     inkscape:window-y="23"
     inkscape:window-maximized="0"
     units="px" />
  <metadata
     id="metadata5">
    <rdf:RDF>
      <cc:Work
         rdf:about="">
        <dc:format>image/svg+xml</dc:format>
        <dc:type
           rdf:resource="http://purl.org/dc/dcmitype/StillImage" />
        <dc:title></dc:title>
      </cc:Work>
    </rdf:RDF>
  </metadata>
  <g
     inkscape:label="Layer 1"
     inkscape:groupmode="layer"
     id="layer1"
     transform="translate(0,-289.59166)">
    <g
       id="g1864"
       transform="matrix(0.10167094,0,0,0.10167094,-7.1789722,278.15742)"
       style="fill:#666666">
      <path
         id="path1838"
         transform="scale(0.26458333)"
         d="m 508,629.45898 c -6.71769,0.0468 -11.45957,0.67745 -16.03711,2.13086 -6.43336,2.04265 -13.10671,6.30691 -11.85156,7.57422 0.35747,0.36095 5.53246,0.21662 11.5,-0.32226 11.21903,-1.01311 19.56346,-0.34084 21.64844,1.74414 2.00333,2.00334 1.03146,9.06622 -2.72657,19.81054 -1.96384,5.61464 -3.57031,10.90218 -3.57031,11.75 0,4.81255 7.61556,-2.76332 12.4707,-12.40429 3.74056,-7.42779 6.94762,-20.86735 6.00391,-25.16407 -0.83992,-3.82405 -5.52995,-5.20229 -17.4375,-5.11914 z m -219.65234,1.95899 c -1.01441,-0.0451 -1.38672,0.58399 -1.38672,1.79297 0,2.04835 11.1905,13.71902 21,21.90234 26.08781,21.76301 53.77233,33.59336 86.50195,36.96484 8.13468,0.83796 29.26315,-0.50727 38.98047,-2.48242 20.9591,-4.26024 41.67538,-13.06149 57.41016,-24.39062 11.11857,-8.00542 14.52671,-11.71835 13.71679,-14.94531 -0.89756,-3.57608 -2.76547,-3.31191 -14.23437,2.01367 -12.97365,6.0243 -33.06266,12.62191 -47.37305,15.55664 -10.1238,2.07609 -14.25235,2.35742 -34.5,2.35742 -20.0987,0 -24.4526,-0.29236 -34.50195,-2.32227 -25.32503,-5.11547 -52.52434,-16.21858 -73.94141,-30.18359 -6.50688,-4.24285 -9.9812,-6.18854 -11.67187,-6.26367 z"
         style="fill:#666666;stroke-width:1.00000012"
         inkscape:connector-curvature="0" />
      <path
         transform="scale(0.26458333)"
         id="path1834"
         d="m 409.29297,436.56445 c -7.26616,-0.10241 -14.56938,0.25016 -19.38477,1.0918 -29.73959,5.19795 -49.51494,21.75309 -55.64258,46.58398 l -1.66406,6.74219 2.56446,2.20508 c 2.21227,1.90288 4.98355,2.45315 20.15234,4 13.42938,1.36951 17.91665,1.51859 18.98633,0.63086 0.77042,-0.63942 2.37875,-3.84442 3.57422,-7.12305 4.26391,-11.6942 11.57702,-17.07812 24.19531,-17.80859 7.01612,-0.40615 8.43175,-0.1676 13.36914,2.24805 4.20582,2.05772 6.16149,3.79584 8.21094,7.29296 2.38873,4.07607 2.73983,5.86302 3.125,15.92579 0.2386,6.23399 0.0391,11.33398 -0.44336,11.33398 -0.48242,0 -8.5257,0.87959 -17.875,1.95312 -35.14833,4.03609 -49.07259,8.94846 -63.08594,22.25977 -6.02358,5.72183 -8.30797,8.77554 -11.38477,15.22266 -4.72475,9.90013 -6.03257,15.96234 -6.01367,27.86328 0.0443,27.59626 13.44315,45.60385 38.11719,51.23047 4.33134,0.98797 9.72859,1.30343 16.86914,0.98632 18.64199,-0.82809 29.05527,-4.87894 42.94727,-16.70898 6.45006,-5.49279 8.49743,-6.76084 9.12109,-5.64648 2.38023,4.25329 10.63974,13.88773 15.13477,17.65429 5.72749,4.79929 8.18657,4.95069 12.79687,0.78516 1.37499,-1.24237 7.7875,-6.86268 14.25,-12.48828 9.41246,-8.19356 11.75,-10.74899 11.75,-12.84961 0,-1.50066 -2.29434,-6.07373 -5.36328,-10.69141 -2.94954,-4.43803 -5.96851,-9.64532 -6.70703,-11.57031 -1.01843,-2.65448 -1.49693,-14.85418 -1.98438,-50.5 -0.52331,-38.27184 -0.93313,-47.97392 -2.20312,-52.24414 -5.92037,-19.90662 -20.12547,-31.70191 -44.25,-36.74414 -4.66619,-0.97527 -11.89596,-1.53236 -19.16211,-1.63477 z m 17.66992,100.14844 -0.0176,11.73828 c -0.0192,12.93793 -1.70055,22.80127 -4.98047,29.23047 -3.00714,5.89449 -9.40087,12.53704 -14.39843,14.95703 0,0 -0.002,0 -0.002,0 -5.67642,2.74724 -13.74481,2.71755 -19.37695,-0.0703 -8.08879,-4.00384 -12.2707,-15.52549 -10.18164,-28.05859 2.78075,-16.68299 15.9274,-25.36855 41.20703,-27.22657 z"
         style="fill:#666666;stroke-width:1.00000012"
         inkscape:connector-curvature="0" />
    </g>
  </g>
</svg>
