<?xml version="1.0" encoding="UTF-8" standalone="no"?>
<!-- Created with Inkscape (http://www.inkscape.org/) -->

<svg
   xmlns:dc="http://purl.org/dc/elements/1.1/"
   xmlns:cc="http://creativecommons.org/ns#"
   xmlns:rdf="http://www.w3.org/1999/02/22-rdf-syntax-ns#"
   xmlns:svg="http://www.w3.org/2000/svg"
   xmlns="http://www.w3.org/2000/svg"
   xmlns:sodipodi="http://sodipodi.sourceforge.net/DTD/sodipodi-0.dtd"
   xmlns:inkscape="http://www.inkscape.org/namespaces/inkscape"
   width="28"
   height="28"
   viewBox="0 0 7.4083338 7.4083335"
   version="1.1"
   id="svg8"
   inkscape:version="0.92.2 (5c3e80d, 2017-08-06)"
   sodipodi:docname="viceroy-1.svg">
  <defs
     id="defs2" />
  <sodipodi:namedview
     id="base"
     pagecolor="#ffffff"
     bordercolor="#666666"
     borderopacity="1.0"
     inkscape:pageopacity="0.0"
     inkscape:pageshadow="2"
     inkscape:zoom="11.2"
     inkscape:cx="15.381043"
     inkscape:cy="21.365836"
     inkscape:document-units="mm"
     inkscape:current-layer="layer1"
     showgrid="false"
     inkscape:window-width="1260"
     inkscape:window-height="787"
     inkscape:window-x="100"
     inkscape:window-y="120"
     inkscape:window-maximized="0"
     units="px" />
  <metadata
     id="metadata5">
    <rdf:RDF>
      <cc:Work
         rdf:about="">
        <dc:format>image/svg+xml</dc:format>
        <dc:type
           rdf:resource="http://purl.org/dc/dcmitype/StillImage" />
        <dc:title></dc:title>
      </cc:Work>
    </rdf:RDF>
  </metadata>
  <g
     inkscape:label="Layer 1"
     inkscape:groupmode="layer"
     id="layer1"
     transform="translate(0,-289.59166)">
    <path
       style="fill:#251a10;stroke-width:0.00623645"
       d="m 0.49659667,289.94431 c -0.38860449,0.20752 -0.496632207523,0.69577 -0.42690318,1.09969 0.03760656,0.13491 0.03000463,0.37026 0.19024518,0.36303 -0.21206444,0.0292 0.17162238,0.13663 -0.0462427,0.0913 -0.0328333,0.26276 0.11355502,0.51074 0.0528208,0.76869 0.0606179,0.31789 0.023545,0.62523 0.20368505,0.90422 0.17766319,0.049 -0.24966458,0.33483 -0.22760898,0.54086 -0.0802795,0.25202 -0.11596176,0.49174 -0.074002,0.7848 0.0185769,0.27811 0.0585207,0.60589 0.0198009,0.91225 0.18043085,0.20223 0.25442095,0.47743 0.5394529,0.55255 0.0913399,0.18875 0.27076011,0.31231 0.47017226,0.20676 0.1595617,0.16695 0.3552326,-0.11844 0.4065173,0.10187 0.2475832,-0.0835 0.2202187,-0.17785 0.4173855,-0.24643 0.1867347,-0.11999 0.324607,-0.28703 0.508313,-0.39716 0.1004269,-0.15854 0.4628584,-0.48322 0.4685046,-0.41461 -0.055361,0.2583 0.1358437,-0.14431 0.2047358,-0.19999 0.057893,-0.19005 0.2001246,-0.52544 0.3117963,-0.39418 0.023142,0.0272 -0.1676397,0.16894 -0.1481449,0.24167 0.2942862,-0.25933 0.053605,1.26505 0.2069274,1.08725 0.1524632,-0.1768 0.087958,-0.61495 0.1033741,-0.84987 0.019487,-0.29697 0.096054,-0.37514 0.1159892,-0.36622 0.1989484,0.089 0.3037381,0.5239 0.548313,0.59506 0.2494447,0.15366 0.396153,0.46546 0.6655744,0.5872 0.095415,0.14291 0.3652509,0.30892 0.4408,0.3256 0.053553,0.0832 0.3130165,0.28577 0.348186,0.0646 0.092395,0.17182 0.2505589,-0.012 0.378538,0.017 0.3270151,0.15304 0.4164945,-0.35477 0.7158748,-0.38033 0.2207173,-0.29908 0.2848025,-0.5913 0.2277809,-0.96286 0.043203,-0.29048 0.1062567,-0.6349 0.00874,-0.91811 -0.042324,-0.23644 -0.156648,-0.53991 -0.3638212,-0.73032 0.2869063,-0.11049 0.2271872,-0.54935 0.2797259,-0.83112 0.010363,-0.27636 0.0279,-0.5298 0.08274,-0.80755 -0.027787,-0.0936 -0.1585397,0.007 0.00293,-0.0949 -0.1888649,-0.084 0.1579956,-0.0438 0.084912,-0.21395 0.1237675,-0.42771 0.078948,-0.98071 -0.3207778,-1.2506 -0.2732582,-0.12772 -0.5567878,0.1454 -0.7975567,0.25685 -0.4155752,-0.22134 -0.6015275,0.29251 -0.8815975,0.44584 -0.245533,0.16308 -0.506532,0.31254 -0.65421,0.57967 -0.2454918,0.28876 -0.5172926,0.56052 -0.7210799,0.88045 -0.027211,0.0427 0.014086,0.074 -0.05753,-0.13453 -0.00445,-0.013 0.1511589,-0.30252 0.2270845,-0.65299 0.036018,-0.16625 0.070021,-0.52077 0.097803,-0.68212 0.021023,-0.1221 0.041007,-0.0629 0.041199,-0.13121 1.714e-4,-0.0607 -0.072361,-0.0566 -0.094496,-0.0318 -0.080442,0.0901 -0.083105,0.0407 -0.080442,0.0901 0.032221,0.59758 0.031005,0.49152 -0.057886,0.84354 -0.087524,0.34661 -0.2298308,0.60741 -0.2488058,0.56452 -0.089313,-0.20188 -0.2177604,-0.54581 -0.3334984,-0.85835 -0.087024,-0.235 -0.1018982,-0.46408 -0.1525128,-0.58988 -0.029984,-0.0745 -0.1146761,-0.10515 -0.1195672,-0.10016 -0.00603,0.006 -0.1275349,0.18193 -0.00606,0.206 0.084774,0.0168 -0.013522,-0.23279 0.084774,0.0168 0.1458155,0.37033 0.4534755,1.37598 0.4493225,1.3848 -0.023126,-0.0509 0.064486,0.22399 0.038559,0.1749 -0.207618,-0.39307 -0.5004167,-0.73104 -0.8038683,-1.0544 -0.168205,-0.24629 -0.3686178,-0.46333 -0.6413781,-0.59583 -0.3227181,-0.11037 -0.422685,-0.65419 -0.8443982,-0.53022 -0.279738,0.0539 -0.52618944,-0.31416 -0.84018434,-0.26815 z m 0.0156886,0.0837 c -0.0995387,0.23947 -0.19057462,0.0204 0,0 z m 0.2145794,0.0462 c 0.45799533,0.23213 -0.37532076,0.18163 0,0 z m 6.08666603,0.0977 c 0.1366948,0.0158 0.1255485,0.20389 -0.00871,0.0159 l 0.00872,-0.016 z m -0.2150855,0.0462 c 0.3568879,0.14416 -0.3488622,0.25001 -0.051029,0.0119 l 0.051029,-0.0115 z m -6.31642792,0.0292 c 0.0165441,0.0651 -0.10954701,0.057 0,0 z m 1.18069282,0.0292 c 0.3993451,0.0272 -0.1862577,0.26013 0,0 z m -0.94941267,0.007 c 0.32283313,0.23294 -0.37731502,0.10881 0,0 z m 0.67359717,0.10127 c 0.1681088,-0.058 0.469369,0.39112 0.1508128,0.18724 -0.06499,-0.041 -0.1831632,-0.0885 -0.1508128,-0.18724 z m 5.8563981,0.007 c 0.1043659,0.058 -0.012864,0.0668 0,0 z M 5.8626,290.42158 c 0.1616355,0.26197 -0.3407909,2.3e-4 0,0 z m 0.9499186,0.006 c 0.433272,0.15344 -0.3486829,0.2114 0,0 z m -5.7248164,0.0491 c 0.1620529,0.046 -0.12094042,0.0719 0,0 z m 5.0507133,0.052 c 0.024638,0.22623 -0.5337042,0.33959 -0.181497,0.0701 0.051472,-0.0382 0.1135891,-0.0818 0.181497,-0.0701 z m -5.28452387,0.0625 c 0.17654787,-0.0224 0.73791967,0.16788 0.46073407,0.33343 -0.2122051,-0.0643 -0.70973477,0.0258 -0.69915801,-0.26805 0.0171782,-0.10655 0.16892145,-0.0476 0.23842394,-0.0654 z m -0.47116373,0.0122 c 0.27675803,0.10579 -0.2382988,0.25177 0,0 z m 5.8548798,0.017 c 0.1265996,0.0913 -0.1610932,0.0289 0,0 z m 0.2338107,0.11527 c 0.4168507,-0.057 0.205329,0.36539 -0.1028419,0.27854 -0.2956654,0.18183 -0.6642892,-0.0818 -0.2117873,-0.21961 0.1001195,-0.0385 0.2081004,-0.0559 0.3146292,-0.0589 z m 0.4711636,0.0122 c 0.2543378,0.25561 -0.2858302,0.10271 0,0 z m -5.0026352,0.17202 c 0.055633,0.0287 0.1377384,0.14469 0.038471,0.0438 z m -0.2150855,5.9e-4 c 0.2716146,-0.0172 0.3595659,0.4003 0.041611,0.23945 -0.09237,-0.0431 -0.1458732,-0.17313 -0.041611,-0.23945 z m -1.13716959,0.0321 c 0.20416218,-0.0115 0.78120839,0.0605 0.65263509,0.3002 -0.2013545,0.0829 -0.80823977,0.0356 -0.65263509,-0.3002 z m -0.25860865,0.014 c 0.2909901,-0.0142 -0.0380057,0.38252 -0.0112445,0.0727 z m -0.14878856,0.0363 c 0.0356624,0.0374 -0.0490598,0.0317 0,0 z m 2.2136092,0.0264 c 0.085716,0.007 -0.011397,0.0787 0,0 z m 2.9914596,0.0346 c -0.031142,0.0552 -0.1490284,0.13257 -0.044766,0.0367 z m 0.2150854,0.001 c 0.2795478,0.24465 -0.4834025,0.39762 -0.197558,0.0934 0.057237,-0.0455 0.1237882,-0.0839 0.197558,-0.0934 z m -5.40497169,0.0246 c 0.0644224,0.0173 -0.0368951,0.0588 0,0 z m 6.54214139,0.007 c 0.1247748,0.34647 -0.4729388,0.41016 -0.6882119,0.27268 -0.016215,-0.22952 0.4890891,-0.27515 0.6882119,-0.27268 z m 0.2586087,0.014 c 0.137916,0.25012 -0.2312733,0.22425 -0.093001,0.0266 l 0.038482,-0.0169 z m -4.7804648,0.009 c 0.1431165,0.0369 0.4907472,0.45161 0.1810693,0.19747 -0.065302,-0.0612 -0.1217465,-0.13072 -0.1810693,-0.19747 z m 4.9292531,0.0275 c 0.049065,0.0318 -0.035662,0.0374 0,0 z m -2.213609,0.0264 c 0.011415,0.0787 -0.085722,0.007 0,0 z m -3.3163652,0.0216 c 0.3678587,0.18577 -0.3359998,0.34784 -0.1449274,0.0365 0.039734,-0.0353 0.093011,-0.047 0.1449274,-0.0365 z m 5.5147916,0.0386 c 0.036893,0.0588 -0.064421,0.0173 0,0 z m -2.020285,0.0298 c -0.067168,0.13524 -0.493022,0.44564 -0.2112006,0.15496 0.065584,-0.0575 0.1335219,-0.11429 0.2112006,-0.15496 z m -4.61244504,0.0755 c 0.18793311,0.13673 -0.13626384,0.40201 -0.0982037,0.0775 -0.0379494,-0.075 0.045523,-0.092 0.0982037,-0.0775 z m 5.21316604,0 c 0.4927741,0.0447 -0.2460539,0.44483 -0.05308,0.0201 l 0.05308,-0.02 z m -5.02895163,0.007 c 0.19134357,-0.0281 0.77515553,0.0928 0.46168933,0.31049 -0.20801836,0.009 -0.59494709,0.0239 -0.46168933,-0.31049 z m 1.55063983,0.0222 c 0.063706,0.0278 -0.023382,0.0418 0,0 z m -0.3021319,0.0233 c 0.216506,0.09 0.6781868,0.25212 0.6437663,0.46453 -0.2692532,-0.0349 -0.498298,-0.26328 -0.7564849,-0.3473 0.011255,-0.056 0.075242,-0.0815 0.1127186,-0.11723 z m 4.8983821,0.0919 c 0.2682191,-0.026 -0.057138,0.49175 -0.056472,0.0799 -0.034683,-0.0593 0.057315,-0.0451 0.056472,-0.0799 z m -0.1842145,0.007 c 0.1757521,0.34759 -0.5267312,0.44008 -0.5637979,0.17709 0.092731,-0.19333 0.3854304,-0.14621 0.5637979,-0.17709 z m -1.5501335,0.0222 c 0.023384,0.0418 -0.063708,0.0278 0,0 z m -3.6822636,0.0153 c 0.1893721,0.12948 -0.2292878,0.24509 0,0 z m 3.9838892,0.008 c 0.2962671,0.23064 -0.3933751,0.25119 -0.5011956,0.44369 -0.4125723,0.0839 0.107253,-0.30976 0.2695365,-0.351 0.075084,-0.0359 0.15254,-0.0669 0.2316591,-0.0927 z m -3.8234607,0.0403 c 0.3942462,0.0327 0.7331651,0.36256 1.1093978,0.33581 0.2246677,0.15893 -0.079941,0.48274 0.2911687,0.39417 0.3110349,-0.0553 0.2493561,0.46456 0.3505974,0.46891 -0.010504,-0.1293 0.1765676,0.28778 0.1000793,0.40247 -0.034503,0.26764 -0.242512,-0.27439 -0.4286433,-0.2679 -0.1904054,-0.0357 -0.2478372,-0.59077 -0.37535,-0.42531 0.00751,0.15951 0.2469597,0.35644 0.017787,0.15146 -0.233345,-0.19218 -0.4126473,-0.43803 -0.6604324,-0.60969 -0.076554,-0.0947 -0.5115258,-0.23897 -0.4046045,-0.44992 z m 4.3416902,0.0954 c 0.2321109,0.18938 -0.1849621,0.17802 0,0 z m -0.1604285,0.0485 c 0.062472,0.29123 -0.4296355,0.38922 -0.584914,0.58497 -0.2171486,0.24392 -0.4623766,0.46919 -0.7212879,0.67123 0.1373106,-0.27772 0.4177503,-0.45797 0.6178227,-0.69149 0.2412221,-0.13016 0.2768077,-0.48156 0.5282029,-0.52532 0.052819,-0.0153 0.1061943,-0.0288 0.1601763,-0.0394 z m -4.87813867,0.0357 c 0.51897537,-0.11325 0.16655227,0.62344 -0.13619543,0.29936 0.053046,-0.1335 -0.13610855,-0.35024 0.13619543,-0.29936 z m -0.37753827,0.008 c 0.31085017,0.002 -0.09128,0.52453 -0.00911,0.13633 -0.008091,-0.0386 -0.0358678,-0.10516 0.00911,-0.13633 z m -0.16397105,0.017 c 0.0708865,0.10801 -0.0189417,0.0809 0,0 z m 5.09575449,0.0316 c -0.2724997,0.3342 -0.5539867,0.66112 -0.8944872,0.92621 -0.043774,0.1109 -0.3414841,0.52902 -0.214568,0.22139 0.097948,-0.2001 0.4878284,-0.53036 0.3314714,-0.66924 -0.2065208,0.29423 -0.099822,-0.43011 0.1800758,-0.22751 0.1960366,-0.0906 0.3939099,-0.17951 0.597508,-0.25085 z m -4.0350035,0.0386 c 0.2116232,0.009 0.6300061,0.25332 0.5796703,0.37875 -0.2560145,-0.0324 -0.6814774,0.0204 -0.7667693,-0.27669 0.046862,-0.0551 0.1174827,-0.0877 0.187099,-0.10206 z m 5.0557741,0.0491 c 0.2340422,-0.0496 0.1294457,0.20186 0.1135813,0.32593 -0.323872,0.24016 -0.6289981,-0.42022 -0.1135813,-0.32593 z m 0.3775383,0.008 c 0.074957,0.11926 -0.00334,0.46812 -0.115964,0.16382 -0.037673,-0.083 0.030779,-0.16746 0.115964,-0.16382 z m 0.1639709,0.017 c 0.018947,0.0809 -0.070887,0.10806 0,0 z m -1.060751,0.0702 c 0.4704427,0.12219 -0.1469772,0.43707 -0.3681036,0.36134 -0.2558284,0.0652 -0.3035523,-0.02 -0.082392,-0.17177 0.1326968,-0.096 0.2875118,-0.16696 0.4504956,-0.18957 z m -5.56843654,0.0104 c 0.019908,0.0166 -0.0300239,0.0249 0,0 z m 2.60025694,0.11111 c 0.2987189,0.15357 -0.2870463,0.18035 0,0 z m 4.0005899,0.0327 c 0.029791,0.0249 -0.02089,0.0166 0,0 z m -6.2066078,0.10475 c 0.3399924,0.0555 0.68905,-0.007 1.0269768,0.0744 0.3037256,0.023 0.5965541,0.1611 0.7782227,0.40986 -0.092154,0.13426 -0.5584657,-0.0937 -0.788214,-0.0497 -0.2723862,-0.067 -0.92608096,0.13307 -0.8147155,-0.33287 -0.0357342,0.1261 -0.1972698,0.37956 -0.21442153,0.0978 0.0705773,-0.0654 -0.0939587,-0.12173 0.0121515,-0.19954 z m 3.6058449,0.007 c 0.2957754,0.19802 -0.2895127,0.13638 0,0 z m -3.84572848,0.0233 c 0.27118322,0.0341 -0.0356858,0.56396 -0.0119039,0.13383 -0.0157,-0.0401 -0.0349491,-0.10569 0.0119039,-0.13383 z m -0.13360604,0.0837 c 0.0608078,0.0551 -0.0531321,0.0835 0,0 z m 6.18535242,0.0304 c 0.079197,0.11771 -0.055656,0.52896 -0.1427157,0.2 -0.1391886,-0.27672 0.059203,0.32228 -0.2305378,0.19466 -0.4471562,0.0459 -0.9019746,0.0279 -1.3406325,0.14148 -0.3055485,0.002 0.1912445,-0.33577 0.3070172,-0.37034 0.3481648,-0.11105 0.719681,-0.15518 1.0850655,-0.13886 0.1076909,0.002 0.2169536,-1.1e-4 0.3218033,-0.0269 z m 0.2398835,0.0298 c 0.075988,0.11302 -0.056651,0.51054 -0.1113308,0.17022 -0.014014,-0.075 0.021907,-0.17075 0.1113308,-0.17022 z m -2.2515654,0.0158 c -0.1635959,0.27987 -0.2836198,0.59512 -0.4973274,0.83586 -0.2346513,0.25559 -0.1096487,-0.61374 -0.021274,-0.35567 0.010406,-0.31276 0.1623227,-0.54095 0.5186014,-0.48019 z m 2.3856775,0.0679 c 0.053136,0.0835 -0.06081,0.0551 0,0 z m -5.6018381,0.27559 c 0.4710306,0.0269 0.9467843,0.0455 1.4074182,0.15677 0.1066499,0.0463 0.2167437,0.33175 0.029897,0.14008 -0.3091436,-0.1419 -0.6603244,-0.19028 -0.9984292,-0.22697 -0.2937902,-0.0477 -0.5831814,0.0175 -0.8761427,0.0576 -0.0966646,-0.1573 0.3550903,-0.1186 0.4372568,-0.12746 z m -0.71965067,0.0445 c 0.23821534,0.11436 -0.0216832,0.25543 -0.0709102,0.10228 -0.009034,0.26425 -0.218607,-0.14138 -0.009964,-0.0551 0.0218367,-0.0193 0.046838,-0.0516 0.0808746,-0.0471 z m 5.36347287,0.0994 c 0.1473875,-0.0741 0.7055282,0.13303 0.2989327,0.11541 -0.2914217,-0.0893 -0.5849784,-0.0537 -0.8808699,-0.0349 -0.3267658,0.0762 -0.6966541,0.0731 -0.9663853,0.29578 -0.2021117,0.0537 0.1527847,-0.31306 0.3187907,-0.25915 0.4060105,-0.0731 0.8188578,-0.0957 1.2295318,-0.11719 z m 0.7196506,0.0445 c 0.1642842,0.0234 0.2292996,0.11994 0.1015616,0.18875 0.00907,-0.2352 -0.2263877,0.17014 -0.1926565,-0.12375 l 0.051466,-0.0485 z m -5.1843192,0.031 c 0.3912958,0.14683 -0.2512625,0.34812 -0.432722,0.26175 -0.17281321,-0.1922 0.3064097,-0.29568 0.432722,-0.26175 z m 1.375535,0.0421 c 0.2059785,0.0337 0.2347203,0.47912 0.066799,0.17147 -0.022543,-0.0567 -0.039866,-0.1169 -0.066799,-0.17147 z m -0.6923223,0.0392 c 0.2687774,0.026 0.547832,0.1435 0.7307987,0.34072 0.025449,0.31596 -0.403611,-0.0474 -0.5795811,-0.0544 -0.1544535,-0.0428 -0.6542307,-0.2011 -0.2614944,-0.28417 l 0.05503,-0.003 z m -1.3355543,5.9e-4 c 0.004223,0.26944 -0.23038762,0.22592 0,0 z m 4.9378565,0.062 c 0.2139526,-0.1179 0.7242816,0.2796 0.28842,0.2699 -0.1593254,0.0362 -0.6874915,-0.15919 -0.28842,-0.2699 z m -2.7242475,0.0123 c 0.1320137,0.041 0.4010319,0.29204 0.2541166,0.3053 -0.045779,-0.19404 -0.2391898,-0.26046 -0.1189927,-0.002 -0.08011,-0.0681 -0.067656,-0.2168 -0.1351239,-0.30371 z m 2.041035,0.069 c 0.2021163,-0.0733 0.4083167,0.17248 0.105821,0.1923 -0.2796382,0.0511 -0.6097473,0.32296 -0.8508147,0.2464 0.062581,-0.28215 0.4442752,-0.38117 0.7034971,-0.43548 l 0.041497,-0.003 z m 1.3355541,5.8e-4 c 0.1487041,0.11061 0.076246,0.30509 -0.011149,0.0378 l 0.011149,-0.0377 z m -2.1098621,0.0749 c 0.00338,0.13189 -0.1456644,0.28751 0,0 z m -0.2768275,0.11586 c -0.00205,0.14227 -0.096204,0.0319 0,0 z m -2.4069331,0.0351 -0.00354,5.9e-4 z m -0.2641756,0.0333 c -0.1358384,0.23455 -0.48081867,0.2636 -0.70483128,0.29082 -0.0245011,-0.29093 0.54584298,0.0779 0.45585208,-0.25761 0.069361,-0.0585 0.1680167,-0.0214 0.2489792,-0.0332 z m 0.2408958,0.0153 c 0.1882271,8.8e-4 0.2472471,0.1134 0.012046,0.0529 l -0.013172,-0.0209 z m -1.12502364,0.008 c 0.1780634,0.12742 -0.14563896,0.46544 -0.0401943,0.12392 -0.0026,-0.0421 -0.008189,-0.10222 0.0401943,-0.12392 z m 0.57440474,0.0568 -0.00607,10e-4 z m 4.5709461,0.031 0.00405,5.9e-4 z m -1.4777637,0.0122 c -0.00543,0.0225 -0.037114,0.0271 0,0 z m 1.7419393,0.0211 c 0.2034888,-0.0608 0.2571551,0.084 0.2969042,0.17611 0.1191952,0.0492 0.5212829,-0.0896 0.3685087,0.13228 -0.2217939,-0.0885 -0.5399316,-0.0645 -0.6654129,-0.30839 z m -0.2408956,0.0151 c -0.050658,0.17741 -0.3332421,-0.0154 -0.032579,0.016 z m 1.1250233,0.008 c 0.1137832,0.14553 0.025365,0.46738 -0.055055,0.11533 -0.00679,-0.045 0.01402,-0.0945 0.055055,-0.11533 z m -0.5738985,0.0568 0.00607,10e-4 z m -4.2455344,0.005 c 0.1835702,-0.005 0.6612712,0.0116 0.267699,0.14311 -0.2723839,0.0241 -0.5738871,0.19486 -0.8314098,0.082 0.034925,-0.25363 0.3770348,-0.203 0.5637108,-0.22514 z m 0.916011,0.0205 c 0.1108886,0.0768 0.3990721,0.28449 0.088268,0.35102 -0.2957135,0.10637 -0.584257,0.23841 -0.9058641,0.22677 -0.1801066,-0.016 -0.7974962,0.15417 -0.5629991,-0.18056 0.3908977,-0.11489 0.7872301,-0.23743 1.1551808,-0.38833 0.074634,-0.009 0.1510935,-0.0137 0.2254149,-0.009 z m -1.7181534,0.0585 c 0.3831115,0.11453 -0.1118767,0.45789 -0.33896559,0.42795 -0.2997467,0.25786 -0.36572719,-0.44676 -0.00666,-0.3577 0.11206139,-0.0346 0.22804489,-0.0707 0.34562589,-0.0703 z m 1.9241294,0.003 0.026317,0.0158 z m 2.2232248,0.062 c 0.1633149,-0.0221 0.6938765,0.0485 0.5025164,0.26361 -0.2862929,7.3e-4 -0.5783998,-0.0715 -0.8520092,-0.15377 -0.3341888,-0.13756 0.2842728,-0.0883 0.3494928,-0.10984 z m -0.915505,0.0205 c 0.3863677,-0.0503 0.6746397,0.2656 1.0549084,0.29267 0.1956641,-0.0258 0.6127765,0.27138 0.2370261,0.32311 -0.3620945,-0.066 -0.7567838,0.007 -1.0958051,-0.16515 -0.2777084,-0.0328 -0.7769345,-0.35611 -0.1961294,-0.45063 z m 1.7176473,0.0585 c 0.2993678,-0.0356 0.8423408,0.18758 0.4817988,0.48669 -0.2221725,-0.0464 -0.9038887,-0.27623 -0.4817914,-0.4874 z m -5.76732738,0.13516 c 0.21464581,0.003 -0.003171,0.45187 0.0177129,0.14043 -5.812e-4,-0.0441 -0.0492059,-0.0954 -0.0177129,-0.14043 z m 2.84570748,0.0104 c -0.1375714,0.25344 -0.4823342,0.37001 -0.6753057,0.61246 -0.2542128,0.26981 -0.4437675,0.59259 -0.6081222,0.92284 -0.3432436,0.15495 -0.2315118,-0.4508 0.019226,-0.5064 0.3151963,-0.34926 0.6131727,-0.73469 1.0616961,-0.91627 0.066543,-0.0392 0.1333494,-0.0781 0.2025058,-0.11263 z m -1.9686648,0.1176 c 0.3168643,0.23548 -0.28297656,0.44233 -0.48122881,0.55186 -0.1550703,-0.002 -0.21187841,-0.45434 0.0835251,-0.41514 0.12885589,-0.0529 0.25536561,-0.13023 0.39770371,-0.13672 z m 5.7081156,0.0158 c 0.043229,0.18692 -0.1037604,0.38942 -0.090727,0.0745 0.00627,-0.0448 0.048154,-0.0754 0.090727,-0.0745 z m -2.8517804,0.0269 0.00506,0.0386 z m 0.056681,0.0122 c 0.4165309,0.19611 0.7840747,0.46478 1.0636311,0.83574 0.1882054,0.13422 0.6408661,0.63495 0.211803,0.70057 -0.1703338,-0.21727 -0.2711351,-0.50083 -0.4547228,-0.71871 -0.1632642,-0.25997 -0.4533468,-0.4347 -0.6391761,-0.64403 -0.018668,-0.13894 -0.2046022,-0.02 -0.1815352,-0.17357 z m -0.9220842,0.0878 c 0.096253,0.18015 -0.086592,0.19672 0,0 z m 2.8406467,10e-4 c 0.2473722,0.085 0.7953911,0.13147 0.5548318,0.51092 -0.135496,0.10998 -0.5305867,-0.20168 -0.6563884,-0.3384 -0.015755,-0.0723 0.00548,-0.17957 0.1015566,-0.17252 z m -3.0658537,0.0906 c -0.1209064,0.25984 -0.3112769,0.4554 -0.4195218,0.66441 -0.030034,0.24855 -0.2730203,0.0914 -0.2786321,0.35734 -0.066728,0.10923 0.0092,0.20759 0.1121077,0.10787 -0.1222242,0.0973 -0.5610726,0.54103 -0.4077772,0.18033 0.1531012,-0.28785 0.3234451,-0.5642 0.4833029,-0.84389 0.1557299,-0.16712 0.2978614,-0.36537 0.5105205,-0.46606 z m -1.1214811,0.0117 c 0.1789473,0.15589 -0.6365119,0.41936 -0.3217065,0.0606 0.094689,-0.0572 0.2136295,-0.0672 0.3217065,-0.0606 z m 0.4048668,0.006 c 0.12266,0.11725 -0.3167116,0.35369 -0.3885121,0.5203 -0.1172896,0.21717 -0.4547893,0.35766 -0.3193029,-0.002 0.1811164,-0.21511 0.4455474,-0.41812 0.707815,-0.51803 z m 1.745482,0.0334 c 0.1125457,0.069 0.1318502,0.51942 0.045698,0.18358 -0.018617,-0.0603 -0.032252,-0.12197 -0.045698,-0.18358 z m 1.3927417,0.10475 c 0.1660446,-0.11018 0.5886128,0.19342 0.2863477,0.26232 -0.048338,-0.01 -0.4695797,-0.22848 -0.2863477,-0.26232 z m -1.0946587,5.9e-4 c 0.2550459,0.17232 0.4893549,0.40679 0.6225115,0.68488 0.088495,0.26331 0.3845376,0.51325 0.3749758,0.77428 -0.1399515,-0.0925 -0.3537372,-0.24302 -0.421059,-0.3398 0.2306243,0.14167 0.048102,-0.43491 -0.1002751,-0.30414 -0.1202134,-0.27783 -0.2900025,-0.42954 -0.440386,-0.72292 -0.0052,-0.0328 -0.058156,-0.0548 -0.035767,-0.0923 z m -1.2318071,0.003 c 0.1566477,0.1444 -0.2143494,0.23667 -2.7e-6,5e-5 z m 1.921093,0.002 c 0.2768714,0.12962 0.6063889,0.31283 0.7382327,0.60212 -0.080198,0.42404 -0.4732994,-0.29892 -0.6627619,-0.42396 -0.026407,-0.0323 -0.2382761,-0.18388 -0.075471,-0.17816 z m -4.60586592,0.003 c 0.24222172,0.0101 -0.0523476,0.53066 0.0141084,0.14399 -0.0143448,-0.0627 -0.1796831,-0.12876 -0.0141084,-0.14399 z m 0.87400622,0.002 c 0.2954481,0.26119 -0.1599412,0.50518 -0.34903518,0.65727 -0.34102016,0.12176 -0.3566425,-0.43875 -0.0260484,-0.46793 0.13233268,-0.0458 0.23704918,-0.17171 0.37508358,-0.18934 z m 2.5830501,0.007 c 0.012589,0.0734 -0.044191,0.10385 0,0 z m 0.2960588,0.0392 c 0.1040786,0.1256 0.036497,0.30677 0.00874,0.0498 l -0.00874,-0.0499 z m 2.7257656,0.0965 c 0.1569569,0.0247 -0.088771,0.1926 -0.026289,0.30739 -0.071993,-0.0591 -0.1247081,-0.31279 0.026289,-0.30739 z m -0.8735001,0.002 c 0.1958958,0.12035 0.6850326,0.22322 0.601734,0.52071 -0.1433812,0.38102 -0.5279215,-0.074 -0.675944,-0.23581 -0.035042,-0.0914 -0.048358,-0.25536 0.07421,-0.2849 z m -2.9023886,0.16096 c 0.034814,0.13371 -0.084644,0.0527 0,0 z m 1.1660163,0.002 c 0.061909,0.11127 -0.023176,0.0299 0,0 z m -1.775847,0.0685 c -0.05239,0.0964 0.085875,0.0123 0,0 z m 1.63718,0.0205 c 0.083904,0.0181 0.089582,0.21473 0.021412,0.0693 z m -1.691331,0.0281 c -0.2331554,0.1805 0.1007304,0.25744 0,0 z m -1.097189,0.0585 c 0.2574563,0.1532 0.04039,0.67793 -0.2242277,0.58009 -0.33853275,-0.28703 -0.022189,-0.4066 0.2242277,-0.58009 z m 3.4438981,0.0367 c -0.079217,0.0178 0.049695,0.0797 0,0 z m 0.054151,0.0486 c -0.1076168,0.24801 0.2341086,0.18985 0,0 z m -4.34877549,0.0292 c 0.16132744,0.1163 0.0548897,0.40949 -0.0127367,0.10917 -0.12109556,-0.0242 -0.10916782,-0.12841 0.0127367,-0.10917 z m 5.44596449,0.0292 c 0.2418178,0.12507 0.5493551,0.34513 0.2242279,0.57782 -0.2600054,0.11701 -0.4810791,-0.4384 -0.2242279,-0.57782 z m 0.8507263,0.11454 c 0.2269311,-0.005 -0.081169,0.19727 -0.077391,0.25819 -0.018993,-0.0849 -0.00968,-0.21297 0.077391,-0.25819 z m -4.4120359,0.0252 c 0.044522,0.13464 -0.099533,0.18118 -0.0086,0.006 z m 0.3193387,0.0391 c -0.04861,0.0815 0.076125,0.006 0,0 z m -0.4691394,0.0989 c -0.055917,0.0944 0.082637,0.0116 0,0 z m 2.6771816,0.007 c 0.1045488,0.14 -0.034036,0.21442 0,0 z m -0.3193387,0.0391 c -0.076124,0.006 0.048611,0.0815 0,0 z m -2.3730254,0.005 c -0.058709,0.0757 0.072157,0.0136 0,0 z m -0.684731,0.0193 c 0.2831765,0.11582 0.2318724,0.49032 -0.066167,0.25349 -0.1576271,-0.1077 -0.058596,-0.16922 0.066167,-0.25349 z m -0.709529,0.0421 c 0.2162455,0.0462 0.1875505,0.41505 0.0301918,0.11633 -0.035827,-0.048 -0.22275092,-0.10492 -0.0301918,-0.11633 z m 4.2364248,0.0327 c -0.075891,0.0183 0.0525,0.0763 0,0 z m 0.015183,0.0497 c -0.072158,0.0135 0.058728,0.0757 0,0 z m -2.7566368,0.003 c -0.00461,0.007 -0.00181,-5.4e-4 0,0 z m 3.4413677,0.0164 c 0.4881991,0.15605 -0.4164957,0.5474 -0.1529786,0.14332 0.041755,-0.0557 0.086635,-0.11552 0.1529786,-0.14332 z m 0.709529,0.0421 c 0.1925781,-0.0269 -0.1761146,0.29795 -0.1672351,0.2152 9.796e-4,-0.094 0.071948,-0.19713 0.1672351,-0.2152 z m -5.1554724,0.16441 c 0.2875491,0.17439 -0.3947779,0.0322 0,0 z m -0.43320748,0.0644 c 0.14114578,0.0263 -0.0351215,0.0249 0,0 z m 0.64424428,0 c 0.2428534,0.0333 -0.088119,0.17465 0,0 z m -0.3815867,0.0632 c 0.2823357,-0.0779 -0.080362,0.13218 0,0 z m 4.8356276,0.0164 c 0.4369036,0.0588 -0.3083922,0.15685 0,0 z m -4.6751992,0.0233 c 0.056796,0.0182 -0.041177,0.0402 0,0 z m 0.5288573,0.0304 c 4.6e-4,0.003 -0.00958,0.004 0,0 z m 3.9358112,0.0104 c 0.088119,0.17465 -0.2428535,0.0333 0,0 z m 0.6437382,0 c 0.03506,0.0245 -0.1412086,0.0261 0,0 z m -4.9758128,0.003 c 0.045848,-0.0166 -0.01984,0.0572 0,0 z m 4.7131553,0.0603 c 0.04692,0.11749 -0.2249791,-0.0551 -2e-6,2e-4 z m -0.1604283,0.0398 c 0.040036,0.0448 -0.055704,0.0151 0,0 z m -0.5288573,0.0304 c 0.00991,0.006 -0.0021,10e-4 0,0 z m 0.3800687,0.0134 c 0.038538,-0.0155 0.00736,0.0557 0,0 z"
       id="path874"
       inkscape:connector-curvature="0"
       sodipodi:nodetypes="ccccccccccccccccscssscccccccccccccccccsssssssssssssscsccccccccccccccccccccccccccccccccccccccccccccccccccccccccccccccccccccccccccccccccccccccccccccccccccccccccccccccccccccccccccccccccccccccccccccccccccccccccccccccccccccccccccccccccccccccccccccccccccccccccccccccccccccccccccccccccccccccccccccccccccccccccccccccccccccccccccccccccccccccccccccccccccccccccccccccccccccccccccccccccccccccccccccccccccccccccccccccccccccccccccccccccccccccccccccccccccccccccccccccccccccccccccccccccccccccccccccccccccccccccccccccccccccccccccccccccccccccccccccccccccccccccccccccccccccccccccccccccccccccc" />
  </g>
</svg>
