<?xml version="1.0" encoding="UTF-8" standalone="no"?>
<!-- Created with Inkscape (http://www.inkscape.org/) -->

<svg
   xmlns:dc="http://purl.org/dc/elements/1.1/"
   xmlns:cc="http://creativecommons.org/ns#"
   xmlns:rdf="http://www.w3.org/1999/02/22-rdf-syntax-ns#"
   xmlns:svg="http://www.w3.org/2000/svg"
   xmlns="http://www.w3.org/2000/svg"
   xmlns:xlink="http://www.w3.org/1999/xlink"
   xmlns:sodipodi="http://sodipodi.sourceforge.net/DTD/sodipodi-0.dtd"
   xmlns:inkscape="http://www.inkscape.org/namespaces/inkscape"
   width="200mm"
   height="200mm"
   viewBox="0 0 200 200"
   version="1.1"
   id="svg8"
   inkscape:version="0.92.2 (5c3e80d, 2017-08-06)"
   sodipodi:docname="brazil-ws-use.svg">
  <defs
     id="defs2">
    <linearGradient
       inkscape:collect="always"
       xlink:href="#linearGradient4553"
       id="linearGradient1302"
       x1="63.815086"
       y1="200.82207"
       x2="48.069973"
       y2="107.53942"
       gradientUnits="userSpaceOnUse"
       gradientTransform="translate(43.467262,-1.5119024)" />
    <linearGradient
       inkscape:collect="always"
       id="linearGradient4553">
      <stop
         style="stop-color:#d18857;stop-opacity:1"
         offset="0"
         id="stop4549" />
      <stop
         style="stop-color:#f6d9c8;stop-opacity:1"
         offset="1"
         id="stop4551" />
    </linearGradient>
  </defs>
  <sodipodi:namedview
     id="base"
     pagecolor="#ffffff"
     bordercolor="#666666"
     borderopacity="1.0"
     inkscape:pageopacity="0.0"
     inkscape:pageshadow="2"
     inkscape:zoom="0.49497475"
     inkscape:cx="396.72233"
     inkscape:cy="341.44195"
     inkscape:document-units="mm"
     inkscape:current-layer="layer1"
     showgrid="false"
     inkscape:window-width="1260"
     inkscape:window-height="787"
     inkscape:window-x="212"
     inkscape:window-y="75"
     inkscape:window-maximized="0" />
  <metadata
     id="metadata5">
    <rdf:RDF>
      <cc:Work
         rdf:about="">
        <dc:format>image/svg+xml</dc:format>
        <dc:type
           rdf:resource="http://purl.org/dc/dcmitype/StillImage" />
        <dc:title></dc:title>
      </cc:Work>
    </rdf:RDF>
  </metadata>
  <g
     inkscape:label="Layer 1"
     inkscape:groupmode="layer"
     id="layer1"
     transform="translate(0,-97)">
    <g
       transform="matrix(2.1458588,0,0,2.1458588,-141.35186,-149.67668)"
       id="g5138">
      <rect
         ry="1.0265886"
         y="125.39881"
         x="70.303574"
         height="58.775295"
         width="58.775295"
         id="rect1294"
         style="opacity:1;fill:url(#linearGradient1302);fill-opacity:1;fill-rule:nonzero;stroke:#763e01;stroke-width:0.60000002;stroke-linecap:round;stroke-miterlimit:4;stroke-dasharray:none;stroke-opacity:1" />
      <g
         id="g1308"
         transform="matrix(0.72818794,0,0,0.72818794,22.844062,-10.340149)">
        <path
           sodipodi:nodetypes="cscc"
           inkscape:connector-curvature="0"
           id="path1304"
           d="m 79.853546,226.47424 c 3.225577,0.31396 18.508288,13.12167 45.371874,3.03782 2.31137,-0.86762 1.50074,0.77537 0.71291,1.26649 -21.63082,14.48386 -45.94687,-0.82561 -46.084784,-4.30431 z"
           style="fill:#2c2012;fill-opacity:1;fill-rule:evenodd;stroke:#3d362f;stroke-width:0.25;stroke-linecap:butt;stroke-linejoin:miter;stroke-miterlimit:4;stroke-dasharray:none;stroke-opacity:1" />
        <path
           sodipodi:nodetypes="czccc"
           inkscape:connector-curvature="0"
           id="path1306"
           d="m 121.8373,227.6483 c -1.79554,-0.89364 7.93595,-3.82781 9.16012,-1.28595 1.22417,2.54185 -3.09231,9.34753 -3.85457,8.11179 0.71541,-2.26195 2.22883,-4.39348 1.7499,-6.45193 -0.48906,-0.86086 -3.94834,-0.67236 -7.05545,-0.37391 z"
           style="fill:#2c2012;fill-opacity:1;fill-rule:evenodd;stroke:#3d362f;stroke-width:0.25;stroke-linecap:round;stroke-linejoin:miter;stroke-miterlimit:4;stroke-dasharray:none;stroke-opacity:1" />
      </g>
      <path
         style="fill:#1a1a1a;fill-rule:evenodd;stroke:#000000;stroke-width:0.26458332px;stroke-linecap:butt;stroke-linejoin:miter;stroke-opacity:1"
         d="m 90.459171,184.32238 20.043359,0.0193 -1.06103,-10.09154 -20.552459,1.13393 z"
         id="path1310"
         inkscape:connector-curvature="0"
         sodipodi:nodetypes="ccccc" />
      <g
         id="g1318"
         transform="translate(11.142114,-6.9561356)">
        <path
           sodipodi:nodetypes="cccccccc"
           inkscape:connector-curvature="0"
           id="path1312"
           d="m 108.33743,138.68703 0.89769,-0.0236 0.0591,4.71289 0.67327,-0.0118 -0.0532,-4.69518 h 0.98038 l -1.31009,-2.65614 z"
           style="fill:#000000;fill-opacity:1;fill-rule:evenodd;stroke:#000000;stroke-width:0.26458332px;stroke-linecap:butt;stroke-linejoin:miter;stroke-opacity:1" />
        <path
           style="fill:#000000;fill-opacity:1;fill-rule:evenodd;stroke:#000000;stroke-width:0.26458332px;stroke-linecap:butt;stroke-linejoin:miter;stroke-opacity:1"
           d="m 111.87875,138.70373 0.89769,-0.0236 0.0591,4.71289 0.67327,-0.0118 -0.0532,-4.69518 h 0.98038 l -1.31009,-2.65614 z"
           id="path1314"
           inkscape:connector-curvature="0"
           sodipodi:nodetypes="cccccccc" />
        <rect
           rx="0"
           ry="0"
           y="143.99054"
           x="108.17211"
           height="1.0511459"
           width="6.4484549"
           id="rect1316"
           style="opacity:1;fill:#000000;fill-opacity:1;fill-rule:nonzero;stroke:none;stroke-width:0.24839947;stroke-miterlimit:4;stroke-dasharray:none;stroke-opacity:1" />
      </g>
      <g
         transform="translate(7.9907559,-74.034033)"
         id="g1396">
        <rect
           y="200.82207"
           x="63.815086"
           height="20.003452"
           width="14.162243"
           id="rect1320"
           style="opacity:1;fill:#f9f9f9;fill-opacity:1;fill-rule:nonzero;stroke:#999999;stroke-width:0.28862175;stroke-miterlimit:4;stroke-dasharray:none;stroke-opacity:1" />
        <path
           inkscape:connector-curvature="0"
           id="path1322"
           d="m 76.238632,202.499 c -0.2017,0.28815 -1.00551,0.15785 -0.754536,0.68653 0.269407,0.0415 0.510028,0.1164 0.544514,0.41087 0.57201,0.31954 -0.562796,0.0655 -0.568931,0.44021 0.08872,0.3583 0.859345,0.2755 0.927034,0.49416 -0.367505,0.15162 -0.531537,0.62547 -0.269039,0.85026 0.150836,0.47162 -0.477014,0.52999 -0.480975,0.94845 0.03836,0.34959 0.623902,0.43334 0.350718,0.86888 -0.170913,0.40819 0.563048,0.61075 0.334576,1.00372 -0.494478,0.0304 -0.42325,0.67159 -0.120204,0.90056 0.05394,0.29968 -0.36917,0.74205 0.123389,0.89354 0.235274,0.19407 -0.239685,0.41755 -0.05713,0.71481 0.209304,0.35887 0.05485,0.66805 -0.296924,0.83591 -0.150108,0.28403 0.359527,0.29611 0.203378,0.62869 -0.0057,0.31538 -0.0013,0.6312 -0.0027,0.94678"
           style="fill:none;fill-rule:evenodd;stroke:#000000;stroke-width:0.26458332px;stroke-linecap:round;stroke-linejoin:miter;stroke-opacity:1" />
        <path
           inkscape:connector-curvature="0"
           id="path1324"
           d="m 73.775223,202.51885 c -0.543381,-0.18007 -0.74484,0.77487 -0.08749,0.6672 0.176061,0.12809 -0.04547,0.45019 0.02063,0.6879 -0.09981,0.33597 -0.551493,0.55229 -0.276159,0.94037 0.286121,-0.0885 0.424191,0.35657 0.211103,0.47762 -0.05062,0.40944 0.266026,0.75053 -0.08992,1.10321 -0.06393,0.40235 0.358504,0.76318 0.01,1.12816 -0.121418,0.45239 0.93894,0.70551 0.432566,1.04452 -0.357066,0.17706 0.01046,0.65791 -0.298073,0.90027 0.0051,0.36224 0.423768,0.73139 0.151936,1.07701 l -0.01012,0.027 0.0023,0.0312"
           style="fill:none;fill-rule:evenodd;stroke:#000000;stroke-width:0.26458332px;stroke-linecap:round;stroke-linejoin:miter;stroke-opacity:1" />
        <path
           inkscape:connector-curvature="0"
           id="path1326"
           d="m 71.939043,210.78281 c -0.2049,-0.34625 -0.795822,-0.43904 -0.826783,-0.83469 0.226977,-0.23284 0.629934,-0.46088 0.308563,-0.83505 -0.337672,-0.52595 0.265199,-0.84193 0.309678,-1.33376 0.109317,-0.36681 -0.291046,-0.73306 -0.05874,-1.07211 0.04761,-0.31938 -0.109831,-0.69997 0.114776,-0.96277 0.360554,-0.31821 -0.04001,-0.685 -0.238436,-0.76653 -0.157006,-0.30301 0.550917,-0.38232 0.132474,-0.58441 -0.588568,0.0841 -0.0078,-0.83869 -0.660377,-0.77197 -0.0281,-0.25309 0.778236,0.0565 0.673343,-0.43943 0.02092,-0.24154 0.304677,-0.58457 -0.08859,-0.68416"
           style="fill:none;fill-rule:evenodd;stroke:#000000;stroke-width:0.26458332px;stroke-linecap:round;stroke-linejoin:miter;stroke-opacity:1" />
        <path
           inkscape:connector-curvature="0"
           id="path1328"
           d="m 69.256213,202.47861 c 0.362961,0.0231 0.308034,0.49067 -7.7e-5,0.55935 -0.156278,0.20345 0.156226,0.52395 -0.164793,0.66027 -0.217851,0.35163 0.250298,0.54364 0.396502,0.73815 -0.09393,0.24083 -0.691004,0.18607 -0.414956,0.56185 -0.06189,0.35845 0.122807,0.72107 -0.04736,1.0514 -0.253757,0.34843 0.130864,0.55878 0.283394,0.81487 0.101721,0.36609 -0.537191,0.46596 -0.330601,0.87521 0.15587,0.29233 0.139867,0.57102 -0.02183,0.85299 0.0327,0.30031 0.06645,0.61397 0.109751,0.9199 0.143716,0.19559 -0.06326,0.49141 0.144122,0.70468 -0.144541,0.14419 -0.108394,0.38213 -0.021,0.5458"
           style="fill:none;fill-rule:evenodd;stroke:#000000;stroke-width:0.26458332px;stroke-linecap:round;stroke-linejoin:miter;stroke-opacity:1" />
        <g
           transform="translate(0.03340869,-1.9377041)"
           id="g1394">
          <path
             style="fill:none;fill-rule:evenodd;stroke:#000000;stroke-width:0.24645656px;stroke-linecap:butt;stroke-linejoin:miter;stroke-opacity:1"
             d="m 64.885587,217.05529 c 0,4.37036 0,4.37036 0,4.37036"
             id="path1330"
             inkscape:connector-curvature="0" />
          <path
             inkscape:connector-curvature="0"
             id="path1332"
             d="m 65.343608,217.05529 c 0,4.37036 0,4.37036 0,4.37036"
             style="fill:none;fill-rule:evenodd;stroke:#000000;stroke-width:0.18000001;stroke-linecap:butt;stroke-linejoin:miter;stroke-miterlimit:4;stroke-dasharray:none;stroke-opacity:1" />
          <path
             style="fill:none;fill-rule:evenodd;stroke:#000000;stroke-width:0.24645656px;stroke-linecap:butt;stroke-linejoin:miter;stroke-opacity:1"
             d="m 65.801627,217.05529 c 0,4.37036 0,4.37036 0,4.37036"
             id="path1334"
             inkscape:connector-curvature="0" />
          <path
             inkscape:connector-curvature="0"
             id="path1336"
             d="m 66.259644,217.05529 c 0,4.37036 0,4.37036 0,4.37036"
             style="fill:none;fill-rule:evenodd;stroke:#000000;stroke-width:0.18000001;stroke-linecap:butt;stroke-linejoin:miter;stroke-miterlimit:4;stroke-dasharray:none;stroke-opacity:1" />
          <path
             inkscape:connector-curvature="0"
             id="path1338"
             d="m 66.717662,217.05529 c 0,3.4018 0,3.4018 0,3.4018"
             style="fill:none;fill-rule:evenodd;stroke:#000000;stroke-width:0.31;stroke-linecap:butt;stroke-linejoin:miter;stroke-miterlimit:4;stroke-dasharray:none;stroke-opacity:1" />
          <path
             style="fill:none;fill-rule:evenodd;stroke:#000000;stroke-width:0.21743824px;stroke-linecap:butt;stroke-linejoin:miter;stroke-opacity:1"
             d="m 67.175683,217.05529 c 0,3.4018 0,3.4018 0,3.4018"
             id="path1340"
             inkscape:connector-curvature="0" />
          <path
             inkscape:connector-curvature="0"
             id="path1342"
             d="m 67.633702,217.05529 c 0,3.4018 0,3.4018 0,3.4018"
             style="fill:none;fill-rule:evenodd;stroke:#000000;stroke-width:0.21743824px;stroke-linecap:butt;stroke-linejoin:miter;stroke-opacity:1" />
          <path
             style="fill:none;fill-rule:evenodd;stroke:#000000;stroke-width:0.18000001;stroke-linecap:butt;stroke-linejoin:miter;stroke-miterlimit:4;stroke-dasharray:none;stroke-opacity:1"
             d="m 68.218384,217.05529 c 0,3.4018 0,3.4018 0,3.4018"
             id="path1344"
             inkscape:connector-curvature="0" />
          <path
             style="fill:none;fill-rule:evenodd;stroke:#000000;stroke-width:0.21743824px;stroke-linecap:butt;stroke-linejoin:miter;stroke-opacity:1"
             d="m 68.549741,217.05529 c 0,3.4018 0,3.4018 0,3.4018"
             id="path1346"
             inkscape:connector-curvature="0" />
          <path
             inkscape:connector-curvature="0"
             id="path1348"
             d="m 69.007755,217.05529 c 0,3.4018 0,3.4018 0,3.4018"
             style="fill:none;fill-rule:evenodd;stroke:#000000;stroke-width:0.21743824px;stroke-linecap:butt;stroke-linejoin:miter;stroke-opacity:1" />
          <path
             style="fill:none;fill-rule:evenodd;stroke:#000000;stroke-width:0.21743824px;stroke-linecap:butt;stroke-linejoin:miter;stroke-opacity:1"
             d="m 69.465781,217.05529 c 0,3.4018 0,3.4018 0,3.4018"
             id="path1350"
             inkscape:connector-curvature="0" />
          <path
             inkscape:connector-curvature="0"
             id="path1352"
             d="m 69.923795,217.05529 c 0,4.37036 0,4.37036 0,4.37036"
             style="fill:none;fill-rule:evenodd;stroke:#000000;stroke-width:0.31;stroke-linecap:butt;stroke-linejoin:miter;stroke-miterlimit:4;stroke-dasharray:none;stroke-opacity:1" />
          <path
             inkscape:connector-curvature="0"
             id="path1354"
             d="m 70.323355,217.05529 c 0,4.37036 0,4.37036 0,4.37036"
             style="fill:none;fill-rule:evenodd;stroke:#000000;stroke-width:0.24645656px;stroke-linecap:butt;stroke-linejoin:miter;stroke-opacity:1" />
          <path
             style="fill:none;fill-rule:evenodd;stroke:#000000;stroke-width:0.2;stroke-linecap:butt;stroke-linejoin:miter;stroke-miterlimit:4;stroke-dasharray:none;stroke-opacity:1"
             d="m 70.990172,217.05529 c 0,4.37036 0,4.37036 0,4.37036"
             id="path1356"
             inkscape:connector-curvature="0" />
          <path
             inkscape:connector-curvature="0"
             id="path1358"
             d="m 71.297851,217.05529 c 0,4.37036 0,4.37036 0,4.37036"
             style="fill:none;fill-rule:evenodd;stroke:#000000;stroke-width:0.24645656px;stroke-linecap:butt;stroke-linejoin:miter;stroke-opacity:1" />
          <path
             style="fill:none;fill-rule:evenodd;stroke:#000000;stroke-width:0.18000001;stroke-linecap:butt;stroke-linejoin:miter;stroke-miterlimit:4;stroke-dasharray:none;stroke-opacity:1"
             d="m 71.755872,217.05529 c 0,3.4018 0,3.4018 0,3.4018"
             id="path1360"
             inkscape:connector-curvature="0" />
          <path
             style="fill:none;fill-rule:evenodd;stroke:#000000;stroke-width:0.18000001;stroke-linecap:butt;stroke-linejoin:miter;stroke-miterlimit:4;stroke-dasharray:none;stroke-opacity:1"
             d="m 72.347525,217.05529 c 0,3.4018 0,3.4018 0,3.4018"
             id="path1362"
             inkscape:connector-curvature="0" />
          <path
             inkscape:connector-curvature="0"
             id="path1364"
             d="m 72.67191,217.05529 c 0,3.4018 0,3.4018 0,3.4018"
             style="fill:none;fill-rule:evenodd;stroke:#000000;stroke-width:0.21743824px;stroke-linecap:butt;stroke-linejoin:miter;stroke-opacity:1" />
          <path
             style="fill:none;fill-rule:evenodd;stroke:#000000;stroke-width:0.31;stroke-linecap:butt;stroke-linejoin:miter;stroke-miterlimit:4;stroke-dasharray:none;stroke-opacity:1"
             d="m 73.12993,217.05529 c 0,3.4018 0,3.4018 0,3.4018"
             id="path1366"
             inkscape:connector-curvature="0" />
          <path
             inkscape:connector-curvature="0"
             id="path1368"
             d="m 73.58795,217.05529 c 0,3.4018 0,3.4018 0,3.4018"
             style="fill:none;fill-rule:evenodd;stroke:#000000;stroke-width:0.21743824px;stroke-linecap:butt;stroke-linejoin:miter;stroke-opacity:1" />
          <path
             inkscape:connector-curvature="0"
             id="path1370"
             d="m 74.04597,217.05529 c 0,3.4018 0,3.4018 0,3.4018"
             style="fill:none;fill-rule:evenodd;stroke:#000000;stroke-width:0.21743824px;stroke-linecap:butt;stroke-linejoin:miter;stroke-opacity:1" />
          <path
             style="fill:none;fill-rule:evenodd;stroke:#000000;stroke-width:0.21743824px;stroke-linecap:butt;stroke-linejoin:miter;stroke-opacity:1"
             d="m 74.503991,217.05529 c 0,3.4018 0,3.4018 0,3.4018"
             id="path1372"
             inkscape:connector-curvature="0" />
          <path
             inkscape:connector-curvature="0"
             id="path1374"
             d="m 74.962002,217.05529 c 0,4.37036 0,4.37036 0,4.37036"
             style="fill:none;fill-rule:evenodd;stroke:#000000;stroke-width:0.24645656px;stroke-linecap:butt;stroke-linejoin:miter;stroke-opacity:1" />
          <path
             style="fill:none;fill-rule:evenodd;stroke:#000000;stroke-width:0.18000001;stroke-linecap:butt;stroke-linejoin:miter;stroke-miterlimit:4;stroke-dasharray:none;stroke-opacity:1"
             d="m 75.573583,217.05529 c 0,4.37036 0,4.37036 0,4.37036"
             id="path1376"
             inkscape:connector-curvature="0" />
          <path
             inkscape:connector-curvature="0"
             id="path1378"
             d="m 75.878049,217.05529 c 0,4.37036 0,4.37036 0,4.37036"
             style="fill:none;fill-rule:evenodd;stroke:#000000;stroke-width:0.24645656px;stroke-linecap:butt;stroke-linejoin:miter;stroke-opacity:1" />
          <path
             style="fill:none;fill-rule:evenodd;stroke:#000000;stroke-width:0.24645656px;stroke-linecap:butt;stroke-linejoin:miter;stroke-opacity:1"
             d="m 76.336069,217.05529 c 0,4.37036 0,4.37036 0,4.37036"
             id="path1380"
             inkscape:connector-curvature="0" />
          <path
             inkscape:connector-curvature="0"
             id="path1382"
             d="m 76.794088,217.05529 c 0,4.37036 0,4.37036 0,4.37036"
             style="fill:none;fill-rule:evenodd;stroke:#000000;stroke-width:0.31;stroke-linecap:butt;stroke-linejoin:miter;stroke-miterlimit:4;stroke-dasharray:none;stroke-opacity:1" />
          <rect
             style="opacity:1;fill:none;fill-opacity:1;fill-rule:nonzero;stroke:#1a1a1a;stroke-width:0.07623883;stroke-linecap:round;stroke-miterlimit:4;stroke-dasharray:none;stroke-opacity:1"
             id="rect1384"
             width="13.252926"
             height="5.3862977"
             x="64.220444"
             y="216.56425"
             ry="0.8216387" />
          <path
             inkscape:connector-curvature="0"
             id="path1386"
             d="m 67.928995,217.05529 c 0,3.4018 0,3.4018 0,3.4018"
             style="fill:none;fill-rule:evenodd;stroke:#000000;stroke-width:0.18000001;stroke-linecap:butt;stroke-linejoin:miter;stroke-miterlimit:4;stroke-dasharray:none;stroke-opacity:1" />
          <path
             inkscape:connector-curvature="0"
             id="path1388"
             d="m 72.055199,217.05529 c 0,3.4018 0,3.4018 0,3.4018"
             style="fill:none;fill-rule:evenodd;stroke:#000000;stroke-width:0.18000001;stroke-linecap:butt;stroke-linejoin:miter;stroke-miterlimit:4;stroke-dasharray:none;stroke-opacity:1" />
          <path
             inkscape:connector-curvature="0"
             id="path1390"
             d="m 70.664437,217.05529 c 0,4.37036 0,4.37036 0,4.37036"
             style="fill:none;fill-rule:evenodd;stroke:#000000;stroke-width:0.2;stroke-linecap:butt;stroke-linejoin:miter;stroke-miterlimit:4;stroke-dasharray:none;stroke-opacity:1" />
          <path
             inkscape:connector-curvature="0"
             id="path1392"
             d="m 75.278289,217.05529 c 0,4.37036 0,4.37036 0,4.37036"
             style="fill:none;fill-rule:evenodd;stroke:#000000;stroke-width:0.18000001;stroke-linecap:butt;stroke-linejoin:miter;stroke-miterlimit:4;stroke-dasharray:none;stroke-opacity:1" />
        </g>
      </g>
      <g
         transform="translate(-7.3229061,-73.163814)"
         id="g1410">
        <path
           sodipodi:nodetypes="ccccc"
           inkscape:connector-curvature="0"
           id="path1398"
           d="m 96.719045,198.39497 20.812655,0.009 -0.14174,14.94557 -20.892639,-1.25204 z"
           style="fill:#333333;fill-rule:evenodd;stroke:#000000;stroke-width:0.26458332px;stroke-linecap:butt;stroke-linejoin:miter;stroke-opacity:1" />
        <g
           style="fill:#7bbbd7;fill-opacity:1;stroke:#368cb2;stroke-opacity:1"
           id="g1404"
           transform="matrix(0.28275051,-0.00828204,-0.00828204,-0.28275051,79.467623,269.24833)">
          <path
             sodipodi:nodetypes="cscc"
             inkscape:connector-curvature="0"
             id="path1400"
             d="m 79.853546,226.47424 c 3.225577,0.31396 18.508288,13.12167 45.371874,3.03782 2.31137,-0.86762 1.50074,0.77537 0.71291,1.26649 -21.63082,14.48386 -45.94687,-0.82561 -46.084784,-4.30431 z"
             style="fill:#7bbbd7;fill-opacity:1;fill-rule:evenodd;stroke:#368cb2;stroke-width:0.25;stroke-linecap:butt;stroke-linejoin:miter;stroke-miterlimit:4;stroke-dasharray:none;stroke-opacity:1" />
          <path
             sodipodi:nodetypes="czccc"
             inkscape:connector-curvature="0"
             id="path1402"
             d="m 121.8373,227.6483 c -1.79554,-0.89364 7.93595,-3.82781 9.16012,-1.28595 1.22417,2.54185 -3.09231,9.34753 -3.85457,8.11179 0.71541,-2.26195 2.22883,-4.39348 1.7499,-6.45193 -0.48906,-0.86086 -3.94834,-0.67236 -7.05545,-0.37391 z"
             style="fill:#7bbbd7;fill-opacity:1;fill-rule:evenodd;stroke:#368cb2;stroke-width:0.25;stroke-linecap:round;stroke-linejoin:miter;stroke-miterlimit:4;stroke-dasharray:none;stroke-opacity:1" />
        </g>
        <text
           transform="rotate(-176.39233)"
           id="text1408"
           y="-198.83415"
           x="-127.89642"
           style="font-style:normal;font-weight:normal;font-size:5.36747694px;line-height:125%;font-family:sans-serif;letter-spacing:0px;word-spacing:0px;fill:#7bbbd7;fill-opacity:1;stroke:#368cb2;stroke-width:0.134;stroke-linecap:butt;stroke-linejoin:miter;stroke-miterlimit:4;stroke-dasharray:none;stroke-opacity:1"
           xml:space="preserve"><tspan
             style="fill:#7bbbd7;fill-opacity:1;stroke:#368cb2;stroke-width:0.134;stroke-miterlimit:4;stroke-dasharray:none;stroke-opacity:1"
             y="-198.83415"
             x="-127.89642"
             id="tspan1406"
             sodipodi:role="line">prime</tspan></text>
      </g>
    </g>
    <path
       id="rect1679"
       style="opacity:1;fill:#7bbbd7;fill-opacity:1;stroke:#286783;stroke-width:5.39598656;stroke-miterlimit:4;stroke-dasharray:none;stroke-opacity:1;paint-order:stroke fill markers"
       d="M 154.39556,291.35151 H 116.45985 V 172.91945 h 37.93571 z M 76.211672,251.10333 V 213.16762 H 194.64374 v 37.93571 z"
       inkscape:connector-curvature="0" />
  </g>
</svg>
