<?xml version="1.0" encoding="UTF-8" standalone="no"?>
<!-- Created with Inkscape (http://www.inkscape.org/) -->

<svg
   xmlns:dc="http://purl.org/dc/elements/1.1/"
   xmlns:cc="http://creativecommons.org/ns#"
   xmlns:rdf="http://www.w3.org/1999/02/22-rdf-syntax-ns#"
   xmlns:svg="http://www.w3.org/2000/svg"
   xmlns="http://www.w3.org/2000/svg"
   xmlns:xlink="http://www.w3.org/1999/xlink"
   xmlns:sodipodi="http://sodipodi.sourceforge.net/DTD/sodipodi-0.dtd"
   xmlns:inkscape="http://www.inkscape.org/namespaces/inkscape"
   width="128mm"
   height="128mm"
   viewBox="0 0 128 128"
   version="1.1"
   id="svg9432"
   inkscape:version="0.92.2 (5c3e80d, 2017-08-06)"
   sodipodi:docname="brazil-package2.svg">
  <defs
     id="defs9426">
    <linearGradient
       inkscape:collect="always"
       xlink:href="#linearGradient4553"
       id="linearGradient1401"
       gradientUnits="userSpaceOnUse"
       gradientTransform="matrix(1.12106,0,0,1.1752643,-57.642186,-42.36495)"
       x1="124.339"
       y1="285.23407"
       x2="120.12343"
       y2="159.10332" />
    <linearGradient
       inkscape:collect="always"
       id="linearGradient4553">
      <stop
         style="stop-color:#d18857;stop-opacity:1"
         offset="0"
         id="stop4549" />
      <stop
         style="stop-color:#f6d9c8;stop-opacity:1"
         offset="1"
         id="stop4551" />
    </linearGradient>
    <linearGradient
       inkscape:collect="always"
       xlink:href="#linearGradient1225"
       id="linearGradient1403"
       gradientUnits="userSpaceOnUse"
       gradientTransform="matrix(1.120663,0,0,0.44759592,-57.599074,166.32455)"
       x1="110.98517"
       y1="253.27933"
       x2="110.98515"
       y2="161.25111" />
    <linearGradient
       id="linearGradient1225"
       inkscape:collect="always">
      <stop
         id="stop1221"
         offset="0"
         style="stop-color:#a05a2c;stop-opacity:1" />
      <stop
         id="stop1223"
         offset="1"
         style="stop-color:#c87137;stop-opacity:1" />
    </linearGradient>
    <filter
       inkscape:collect="always"
       style="color-interpolation-filters:sRGB"
       id="filter1587"
       x="-0.036587682"
       width="1.0731754"
       y="-0.046326354"
       height="1.0926527">
      <feGaussianBlur
         inkscape:collect="always"
         stdDeviation="1.8583611"
         id="feGaussianBlur1589" />
    </filter>
  </defs>
  <sodipodi:namedview
     id="base"
     pagecolor="#ffffff"
     bordercolor="#666666"
     borderopacity="1.0"
     inkscape:pageopacity="0.0"
     inkscape:pageshadow="2"
     inkscape:zoom="0.98994949"
     inkscape:cx="185.4233"
     inkscape:cy="196.55578"
     inkscape:document-units="mm"
     inkscape:current-layer="layer1"
     showgrid="false"
     inkscape:window-width="1260"
     inkscape:window-height="787"
     inkscape:window-x="710"
     inkscape:window-y="142"
     inkscape:window-maximized="0" />
  <metadata
     id="metadata9429">
    <rdf:RDF>
      <cc:Work
         rdf:about="">
        <dc:format>image/svg+xml</dc:format>
        <dc:type
           rdf:resource="http://purl.org/dc/dcmitype/StillImage" />
        <dc:title />
      </cc:Work>
    </rdf:RDF>
  </metadata>
  <g
     inkscape:label="Layer 1"
     inkscape:groupmode="layer"
     id="layer1"
     transform="translate(0,-169)">
    <rect
       style="opacity:1;fill:#696969;fill-opacity:1;stroke:#999999;stroke-width:0.267746;stroke-linecap:round;stroke-miterlimit:4;stroke-dasharray:none;stroke-dashoffset:0;stroke-opacity:1;paint-order:stroke fill markers;filter:url(#filter1587)"
       id="rect1125"
       width="121.90077"
       height="96.274933"
       x="3.9420066"
       y="188.60652"
       ry="0.20366639"
       transform="matrix(0.96629209,0,0,0.92192516,2.4431841,18.404855)" />
    <rect
       style="opacity:1;fill:url(#linearGradient1401);fill-opacity:1;fill-rule:nonzero;stroke:#763e01;stroke-width:0.76778132;stroke-linecap:round;stroke-miterlimit:4;stroke-dasharray:none;stroke-opacity:1"
       id="rect1287"
       width="117.58617"
       height="63.967957"
       x="6.1297836"
       y="191.63515"
       ry="0.24746636" />
    <rect
       ry="0"
       y="255.4427"
       x="6.1502852"
       height="24.362005"
       width="117.54451"
       id="rect1313"
       style="opacity:1;fill:url(#linearGradient1403);fill-opacity:1;fill-rule:nonzero;stroke:#763e01;stroke-width:0.79616338;stroke-linecap:round;stroke-miterlimit:4;stroke-dasharray:none;stroke-opacity:1" />
    <g
       id="g1319"
       transform="matrix(1.3289786,0,0,0.76494355,-73.022901,90.142647)">
      <path
         sodipodi:nodetypes="cscc"
         inkscape:connector-curvature="0"
         id="path1315"
         d="m 79.853546,226.47424 c 3.225577,0.31396 18.508288,13.12167 45.371874,3.03782 2.31137,-0.86762 1.50074,0.77537 0.71291,1.26649 -21.63082,14.48386 -45.94687,-0.82561 -46.084784,-4.30431 z"
         style="fill:#2c2012;fill-opacity:1;fill-rule:evenodd;stroke:#3d362f;stroke-width:0.25;stroke-linecap:butt;stroke-linejoin:miter;stroke-miterlimit:4;stroke-dasharray:none;stroke-opacity:1" />
      <path
         sodipodi:nodetypes="czccc"
         inkscape:connector-curvature="0"
         id="path1317"
         d="m 121.8373,227.6483 c -1.79554,-0.89364 7.93595,-3.82781 9.16012,-1.28595 1.22417,2.54185 -3.09231,9.34753 -3.85457,8.11179 0.71541,-2.26195 2.22883,-4.39348 1.7499,-6.45193 -0.48906,-0.86086 -3.94834,-0.67236 -7.05545,-0.37391 z"
         style="fill:#2c2012;fill-opacity:1;fill-rule:evenodd;stroke:#3d362f;stroke-width:0.25;stroke-linecap:round;stroke-linejoin:miter;stroke-miterlimit:4;stroke-dasharray:none;stroke-opacity:1" />
    </g>
    <g
       id="g1089"
       transform="translate(-0.93544335,-0.13363476)">
      <rect
         transform="rotate(-90)"
         y="10.531799"
         x="-213.66235"
         height="34.485836"
         width="19.405132"
         id="rect1321"
         style="opacity:1;fill:#f9f9f9;fill-opacity:1;fill-rule:nonzero;stroke:#999999;stroke-width:0.44359767;stroke-miterlimit:4;stroke-dasharray:none;stroke-opacity:1" />
      <path
         inkscape:connector-curvature="0"
         id="path1323"
         d="m 13.422822,196.63959 c 0.496769,0.27637 0.272132,1.37775 1.183574,1.03387 0.07155,-0.36914 0.200672,-0.69884 0.708337,-0.7461 0.550885,-0.78377 0.112922,0.77115 0.75892,0.77955 0.617707,-0.12156 0.47496,-1.17747 0.851929,-1.27022 0.261392,0.50356 1.078306,0.72831 1.465843,0.36864 0.81307,-0.20668 0.9137,0.6536 1.635122,0.65903 0.602692,-0.0526 0.747076,-0.85487 1.497945,-0.48055 0.703717,0.23418 1.052929,-0.77149 1.730407,-0.45844 0.05241,0.67753 1.157818,0.57994 1.55256,0.1647 0.516647,-0.0739 1.27929,0.50584 1.540458,-0.16906 0.334576,-0.32238 0.719854,0.32841 1.232329,0.0783 0.61869,-0.28679 1.151714,-0.0752 1.441104,0.40684 0.489666,0.20568 0.510492,-0.49262 1.083858,-0.27867 0.543713,0.008 1.088185,0.002 1.632243,0.004"
         style="fill:none;fill-rule:evenodd;stroke:#000000;stroke-width:0.40665177px;stroke-linecap:round;stroke-linejoin:miter;stroke-opacity:1" />
      <path
         inkscape:connector-curvature="0"
         id="path1325"
         d="m 13.457043,200.01496 c -0.31044,0.74454 1.335872,1.02058 1.150249,0.11988 0.220826,-0.24124 0.776125,0.0623 1.185936,-0.0283 0.57921,0.13676 0.952145,0.75566 1.621192,0.37839 -0.152573,-0.39204 0.614725,-0.58122 0.823414,-0.28925 0.705873,0.0694 1.29391,-0.36451 1.901928,0.12321 0.693649,0.0876 1.315718,-0.49122 1.944942,-0.0137 0.779917,0.16636 1.216295,-1.28654 1.800746,-0.59271 0.305251,0.48926 1.134233,-0.0143 1.55206,0.40842 0.6245,-0.007 1.260913,-0.58064 1.85676,-0.20818 l 0.04655,0.0139 0.05379,-0.003"
         style="fill:none;fill-rule:evenodd;stroke:#000000;stroke-width:0.40665177px;stroke-linecap:round;stroke-linejoin:miter;stroke-opacity:1" />
      <path
         inkscape:connector-curvature="0"
         id="path1327"
         d="m 27.704063,202.5309 c -0.596933,0.28075 -0.756902,1.09043 -1.439001,1.13286 -0.401415,-0.31101 -0.794554,-0.86314 -1.439621,-0.4228 -0.906735,0.46268 -1.451483,-0.36337 -2.299395,-0.42432 -0.632378,-0.14979 -1.263791,0.39879 -1.848311,0.0805 -0.55061,-0.0652 -1.206745,0.15049 -1.65981,-0.15727 -0.548593,-0.49403 -1.180937,0.0548 -1.321494,0.32671 -0.522387,0.21513 -0.659117,-0.75487 -1.007519,-0.18152 0.144988,0.80646 -1.445897,0.0107 -1.330872,0.90485 -0.436326,0.0385 0.09741,-1.06634 -0.757575,-0.92262 -0.416414,-0.0287 -1.007795,-0.41747 -1.179488,0.12139"
         style="fill:none;fill-rule:evenodd;stroke:#000000;stroke-width:0.40665177px;stroke-linecap:round;stroke-linejoin:miter;stroke-opacity:1" />
      <path
         inkscape:connector-curvature="0"
         id="path1329"
         d="m 13.38767,206.20692 c 0.03982,-0.49733 0.845912,-0.42207 0.964316,1e-4 0.350746,0.21413 0.903287,-0.21406 1.138301,0.2258 0.606209,0.2985 0.937233,-0.34296 1.272567,-0.54329 0.415189,0.12871 0.320783,0.94682 0.968626,0.56858 0.617966,0.0848 1.243121,-0.16827 1.812608,0.0649 0.600691,0.3477 0.963333,-0.17931 1.404831,-0.38831 0.631137,-0.13938 0.803312,0.73606 1.508857,0.45299 0.503975,-0.21357 0.984435,-0.19164 1.47055,0.0299 0.517733,-0.0448 1.058481,-0.091 1.585902,-0.15038 0.337196,-0.19692 0.847188,0.0867 1.214864,-0.19747 0.248583,0.19805 0.65879,0.14852 0.940957,0.0288"
         style="fill:none;fill-rule:evenodd;stroke:#000000;stroke-width:0.40665177px;stroke-linecap:round;stroke-linejoin:miter;stroke-opacity:1" />
      <g
         transform="matrix(0,-1.3702019,1.7239943,0,-339.02489,301.05613)"
         id="g1395">
        <path
           style="fill:none;fill-rule:evenodd;stroke:#000000;stroke-width:0.24645656px;stroke-linecap:butt;stroke-linejoin:miter;stroke-opacity:1"
           d="m 64.885587,217.05529 c 0,4.37036 0,4.37036 0,4.37036"
           id="path1331"
           inkscape:connector-curvature="0" />
        <path
           inkscape:connector-curvature="0"
           id="path1333"
           d="m 65.343608,217.05529 c 0,4.37036 0,4.37036 0,4.37036"
           style="fill:none;fill-rule:evenodd;stroke:#000000;stroke-width:0.18000001;stroke-linecap:butt;stroke-linejoin:miter;stroke-miterlimit:4;stroke-dasharray:none;stroke-opacity:1" />
        <path
           style="fill:none;fill-rule:evenodd;stroke:#000000;stroke-width:0.24645656px;stroke-linecap:butt;stroke-linejoin:miter;stroke-opacity:1"
           d="m 65.801627,217.05529 c 0,4.37036 0,4.37036 0,4.37036"
           id="path1335"
           inkscape:connector-curvature="0" />
        <path
           inkscape:connector-curvature="0"
           id="path1337"
           d="m 66.259644,217.05529 c 0,4.37036 0,4.37036 0,4.37036"
           style="fill:none;fill-rule:evenodd;stroke:#000000;stroke-width:0.18000001;stroke-linecap:butt;stroke-linejoin:miter;stroke-miterlimit:4;stroke-dasharray:none;stroke-opacity:1" />
        <path
           inkscape:connector-curvature="0"
           id="path1339"
           d="m 66.717662,217.05529 c 0,3.4018 0,3.4018 0,3.4018"
           style="fill:none;fill-rule:evenodd;stroke:#000000;stroke-width:0.31;stroke-linecap:butt;stroke-linejoin:miter;stroke-miterlimit:4;stroke-dasharray:none;stroke-opacity:1" />
        <path
           style="fill:none;fill-rule:evenodd;stroke:#000000;stroke-width:0.21743824px;stroke-linecap:butt;stroke-linejoin:miter;stroke-opacity:1"
           d="m 67.175683,217.05529 c 0,3.4018 0,3.4018 0,3.4018"
           id="path1341"
           inkscape:connector-curvature="0" />
        <path
           inkscape:connector-curvature="0"
           id="path1343"
           d="m 67.633702,217.05529 c 0,3.4018 0,3.4018 0,3.4018"
           style="fill:none;fill-rule:evenodd;stroke:#000000;stroke-width:0.21743824px;stroke-linecap:butt;stroke-linejoin:miter;stroke-opacity:1" />
        <path
           style="fill:none;fill-rule:evenodd;stroke:#000000;stroke-width:0.18000001;stroke-linecap:butt;stroke-linejoin:miter;stroke-miterlimit:4;stroke-dasharray:none;stroke-opacity:1"
           d="m 68.218384,217.05529 c 0,3.4018 0,3.4018 0,3.4018"
           id="path1345"
           inkscape:connector-curvature="0" />
        <path
           style="fill:none;fill-rule:evenodd;stroke:#000000;stroke-width:0.21743824px;stroke-linecap:butt;stroke-linejoin:miter;stroke-opacity:1"
           d="m 68.549741,217.05529 c 0,3.4018 0,3.4018 0,3.4018"
           id="path1347"
           inkscape:connector-curvature="0" />
        <path
           inkscape:connector-curvature="0"
           id="path1349"
           d="m 69.007755,217.05529 c 0,3.4018 0,3.4018 0,3.4018"
           style="fill:none;fill-rule:evenodd;stroke:#000000;stroke-width:0.21743824px;stroke-linecap:butt;stroke-linejoin:miter;stroke-opacity:1" />
        <path
           style="fill:none;fill-rule:evenodd;stroke:#000000;stroke-width:0.21743824px;stroke-linecap:butt;stroke-linejoin:miter;stroke-opacity:1"
           d="m 69.465781,217.05529 c 0,3.4018 0,3.4018 0,3.4018"
           id="path1351"
           inkscape:connector-curvature="0" />
        <path
           inkscape:connector-curvature="0"
           id="path1353"
           d="m 69.923795,217.05529 c 0,4.37036 0,4.37036 0,4.37036"
           style="fill:none;fill-rule:evenodd;stroke:#000000;stroke-width:0.31;stroke-linecap:butt;stroke-linejoin:miter;stroke-miterlimit:4;stroke-dasharray:none;stroke-opacity:1" />
        <path
           inkscape:connector-curvature="0"
           id="path1355"
           d="m 70.323355,217.05529 c 0,4.37036 0,4.37036 0,4.37036"
           style="fill:none;fill-rule:evenodd;stroke:#000000;stroke-width:0.24645656px;stroke-linecap:butt;stroke-linejoin:miter;stroke-opacity:1" />
        <path
           style="fill:none;fill-rule:evenodd;stroke:#000000;stroke-width:0.2;stroke-linecap:butt;stroke-linejoin:miter;stroke-miterlimit:4;stroke-dasharray:none;stroke-opacity:1"
           d="m 70.990172,217.05529 c 0,4.37036 0,4.37036 0,4.37036"
           id="path1357"
           inkscape:connector-curvature="0" />
        <path
           inkscape:connector-curvature="0"
           id="path1359"
           d="m 71.297851,217.05529 c 0,4.37036 0,4.37036 0,4.37036"
           style="fill:none;fill-rule:evenodd;stroke:#000000;stroke-width:0.24645656px;stroke-linecap:butt;stroke-linejoin:miter;stroke-opacity:1" />
        <path
           style="fill:none;fill-rule:evenodd;stroke:#000000;stroke-width:0.18000001;stroke-linecap:butt;stroke-linejoin:miter;stroke-miterlimit:4;stroke-dasharray:none;stroke-opacity:1"
           d="m 71.755872,217.05529 c 0,3.4018 0,3.4018 0,3.4018"
           id="path1361"
           inkscape:connector-curvature="0" />
        <path
           style="fill:none;fill-rule:evenodd;stroke:#000000;stroke-width:0.18000001;stroke-linecap:butt;stroke-linejoin:miter;stroke-miterlimit:4;stroke-dasharray:none;stroke-opacity:1"
           d="m 72.347525,217.05529 c 0,3.4018 0,3.4018 0,3.4018"
           id="path1363"
           inkscape:connector-curvature="0" />
        <path
           inkscape:connector-curvature="0"
           id="path1365"
           d="m 72.67191,217.05529 c 0,3.4018 0,3.4018 0,3.4018"
           style="fill:none;fill-rule:evenodd;stroke:#000000;stroke-width:0.21743824px;stroke-linecap:butt;stroke-linejoin:miter;stroke-opacity:1" />
        <path
           style="fill:none;fill-rule:evenodd;stroke:#000000;stroke-width:0.31;stroke-linecap:butt;stroke-linejoin:miter;stroke-miterlimit:4;stroke-dasharray:none;stroke-opacity:1"
           d="m 73.12993,217.05529 c 0,3.4018 0,3.4018 0,3.4018"
           id="path1367"
           inkscape:connector-curvature="0" />
        <path
           inkscape:connector-curvature="0"
           id="path1369"
           d="m 73.58795,217.05529 c 0,3.4018 0,3.4018 0,3.4018"
           style="fill:none;fill-rule:evenodd;stroke:#000000;stroke-width:0.21743824px;stroke-linecap:butt;stroke-linejoin:miter;stroke-opacity:1" />
        <path
           inkscape:connector-curvature="0"
           id="path1371"
           d="m 74.04597,217.05529 c 0,3.4018 0,3.4018 0,3.4018"
           style="fill:none;fill-rule:evenodd;stroke:#000000;stroke-width:0.21743824px;stroke-linecap:butt;stroke-linejoin:miter;stroke-opacity:1" />
        <path
           style="fill:none;fill-rule:evenodd;stroke:#000000;stroke-width:0.21743824px;stroke-linecap:butt;stroke-linejoin:miter;stroke-opacity:1"
           d="m 74.503991,217.05529 c 0,3.4018 0,3.4018 0,3.4018"
           id="path1373"
           inkscape:connector-curvature="0" />
        <path
           inkscape:connector-curvature="0"
           id="path1375"
           d="m 74.962002,217.05529 c 0,4.37036 0,4.37036 0,4.37036"
           style="fill:none;fill-rule:evenodd;stroke:#000000;stroke-width:0.24645656px;stroke-linecap:butt;stroke-linejoin:miter;stroke-opacity:1" />
        <path
           style="fill:none;fill-rule:evenodd;stroke:#000000;stroke-width:0.18000001;stroke-linecap:butt;stroke-linejoin:miter;stroke-miterlimit:4;stroke-dasharray:none;stroke-opacity:1"
           d="m 75.573583,217.05529 c 0,4.37036 0,4.37036 0,4.37036"
           id="path1377"
           inkscape:connector-curvature="0" />
        <path
           inkscape:connector-curvature="0"
           id="path1379"
           d="m 75.878049,217.05529 c 0,4.37036 0,4.37036 0,4.37036"
           style="fill:none;fill-rule:evenodd;stroke:#000000;stroke-width:0.24645656px;stroke-linecap:butt;stroke-linejoin:miter;stroke-opacity:1" />
        <path
           style="fill:none;fill-rule:evenodd;stroke:#000000;stroke-width:0.24645656px;stroke-linecap:butt;stroke-linejoin:miter;stroke-opacity:1"
           d="m 76.336069,217.05529 c 0,4.37036 0,4.37036 0,4.37036"
           id="path1381"
           inkscape:connector-curvature="0" />
        <path
           inkscape:connector-curvature="0"
           id="path1383"
           d="m 76.794088,217.05529 c 0,4.37036 0,4.37036 0,4.37036"
           style="fill:none;fill-rule:evenodd;stroke:#000000;stroke-width:0.31;stroke-linecap:butt;stroke-linejoin:miter;stroke-miterlimit:4;stroke-dasharray:none;stroke-opacity:1" />
        <rect
           style="opacity:1;fill:none;fill-opacity:1;fill-rule:nonzero;stroke:#1a1a1a;stroke-width:0.07623883;stroke-linecap:round;stroke-miterlimit:4;stroke-dasharray:none;stroke-opacity:1"
           id="rect1385"
           width="13.252926"
           height="5.3862977"
           x="64.220444"
           y="216.56425"
           ry="0.8216387" />
        <path
           inkscape:connector-curvature="0"
           id="path1387"
           d="m 67.928995,217.05529 c 0,3.4018 0,3.4018 0,3.4018"
           style="fill:none;fill-rule:evenodd;stroke:#000000;stroke-width:0.18000001;stroke-linecap:butt;stroke-linejoin:miter;stroke-miterlimit:4;stroke-dasharray:none;stroke-opacity:1" />
        <path
           inkscape:connector-curvature="0"
           id="path1389"
           d="m 72.055199,217.05529 c 0,3.4018 0,3.4018 0,3.4018"
           style="fill:none;fill-rule:evenodd;stroke:#000000;stroke-width:0.18000001;stroke-linecap:butt;stroke-linejoin:miter;stroke-miterlimit:4;stroke-dasharray:none;stroke-opacity:1" />
        <path
           inkscape:connector-curvature="0"
           id="path1391"
           d="m 70.664437,217.05529 c 0,4.37036 0,4.37036 0,4.37036"
           style="fill:none;fill-rule:evenodd;stroke:#000000;stroke-width:0.2;stroke-linecap:butt;stroke-linejoin:miter;stroke-miterlimit:4;stroke-dasharray:none;stroke-opacity:1" />
        <path
           inkscape:connector-curvature="0"
           id="path1393"
           d="m 75.278289,217.05529 c 0,4.37036 0,4.37036 0,4.37036"
           style="fill:none;fill-rule:evenodd;stroke:#000000;stroke-width:0.18000001;stroke-linecap:butt;stroke-linejoin:miter;stroke-miterlimit:4;stroke-dasharray:none;stroke-opacity:1" />
      </g>
    </g>
    <path
       sodipodi:nodetypes="cc"
       inkscape:connector-curvature="0"
       id="path1289"
       d="m 5.9150258,222.76775 117.7870542,0.0914"
       style="fill:none;fill-opacity:1;stroke:#784421;stroke-width:0.53159148;stroke-linecap:butt;stroke-linejoin:miter;stroke-miterlimit:4;stroke-dasharray:none;stroke-opacity:1" />
    <path
       style="fill:none;fill-opacity:1;stroke:#a05a2c;stroke-width:0.53159148;stroke-linecap:butt;stroke-linejoin:miter;stroke-miterlimit:4;stroke-dasharray:none;stroke-opacity:1"
       d="m 5.9150258,223.33383 117.7870542,0.0914"
       id="path1291"
       inkscape:connector-curvature="0"
       sodipodi:nodetypes="cc" />
    <rect
       style="opacity:1;fill:#333333;fill-opacity:1;stroke:#1a1a1a;stroke-width:0.35221356;stroke-miterlimit:4;stroke-dasharray:none;stroke-dashoffset:0;stroke-opacity:1;paint-order:stroke fill markers"
       id="rect1405"
       width="117.99783"
       height="18.655714"
       x="5.941031"
       y="214.29129"
       ry="0.26691902" />
    <g
       id="g1467"
       transform="matrix(0.94476176,0,0,0.94476176,-87.477028,161.463)">
      <path
         style="fill:#7bbbd7;fill-opacity:1;fill-rule:evenodd;stroke:#368cb2;stroke-width:0.07071795;stroke-linecap:butt;stroke-linejoin:miter;stroke-miterlimit:4;stroke-dasharray:none;stroke-opacity:1"
         d="m 106.76246,58.892234 c 0.10825,0.910323 3.82257,5.155114 1.13285,12.813177 -0.23142,0.658907 0.22834,0.419743 0.36248,0.193975 3.96564,-6.20474 -0.5107,-12.989137 -1.49533,-13.007152 z"
         id="path1423"
         inkscape:connector-curvature="0"
         sodipodi:nodetypes="cscc" />
      <path
         style="fill:#7bbbd7;fill-opacity:1;fill-rule:evenodd;stroke:#368cb2;stroke-width:0.07071795;stroke-linecap:round;stroke-linejoin:miter;stroke-miterlimit:4;stroke-dasharray:none;stroke-opacity:1"
         d="m 107.34779,70.75847 c -0.26357,-0.5024 -1.03466,2.26744 -0.30842,2.598308 0.72624,0.330869 2.6249,-0.930923 2.27082,-1.13904 -0.63538,0.21597 -1.22906,0.656836 -1.81409,0.53381 -0.24641,-0.133116 -0.21397,-1.112564 -0.14831,-1.993078 z"
         id="path1425"
         inkscape:connector-curvature="0"
         sodipodi:nodetypes="czccc" />
      <text
         transform="rotate(-85.936676)"
         id="text1429"
         y="109.67576"
         x="-66.232269"
         style="font-style:normal;font-weight:normal;font-size:5.36747694px;line-height:125%;font-family:sans-serif;letter-spacing:0px;word-spacing:0px;fill:#7bbbd7;fill-opacity:1;stroke:#368cb2;stroke-width:0.134;stroke-linecap:butt;stroke-linejoin:miter;stroke-miterlimit:4;stroke-dasharray:none;stroke-opacity:1"
         xml:space="preserve"><tspan
           style="fill:#7bbbd7;fill-opacity:1;stroke:#368cb2;stroke-width:0.134;stroke-miterlimit:4;stroke-dasharray:none;stroke-opacity:1"
           y="109.67576"
           x="-66.232269"
           id="tspan1427"
           sodipodi:role="line">prime</tspan></text>
    </g>
    <g
       transform="matrix(0.94476176,0,0,0.94476176,-52.314466,161.463)"
       id="g1477">
      <path
         sodipodi:nodetypes="cscc"
         inkscape:connector-curvature="0"
         id="path1469"
         d="m 106.76246,58.892234 c 0.10825,0.910323 3.82257,5.155114 1.13285,12.813177 -0.23142,0.658907 0.22834,0.419743 0.36248,0.193975 3.96564,-6.20474 -0.5107,-12.989137 -1.49533,-13.007152 z"
         style="fill:#7bbbd7;fill-opacity:1;fill-rule:evenodd;stroke:#368cb2;stroke-width:0.07071795;stroke-linecap:butt;stroke-linejoin:miter;stroke-miterlimit:4;stroke-dasharray:none;stroke-opacity:1" />
      <path
         sodipodi:nodetypes="czccc"
         inkscape:connector-curvature="0"
         id="path1471"
         d="m 107.34779,70.75847 c -0.26357,-0.5024 -1.03466,2.26744 -0.30842,2.598308 0.72624,0.330869 2.6249,-0.930923 2.27082,-1.13904 -0.63538,0.21597 -1.22906,0.656836 -1.81409,0.53381 -0.24641,-0.133116 -0.21397,-1.112564 -0.14831,-1.993078 z"
         style="fill:#7bbbd7;fill-opacity:1;fill-rule:evenodd;stroke:#368cb2;stroke-width:0.07071795;stroke-linecap:round;stroke-linejoin:miter;stroke-miterlimit:4;stroke-dasharray:none;stroke-opacity:1" />
      <text
         xml:space="preserve"
         style="font-style:normal;font-weight:normal;font-size:5.36747694px;line-height:125%;font-family:sans-serif;letter-spacing:0px;word-spacing:0px;fill:#7bbbd7;fill-opacity:1;stroke:#368cb2;stroke-width:0.134;stroke-linecap:butt;stroke-linejoin:miter;stroke-miterlimit:4;stroke-dasharray:none;stroke-opacity:1"
         x="-66.232269"
         y="109.67576"
         id="text1475"
         transform="rotate(-85.936676)"><tspan
           sodipodi:role="line"
           id="tspan1473"
           x="-66.232269"
           y="109.67576"
           style="fill:#7bbbd7;fill-opacity:1;stroke:#368cb2;stroke-width:0.134;stroke-miterlimit:4;stroke-dasharray:none;stroke-opacity:1">prime</tspan></text>
    </g>
    <g
       id="g1487"
       transform="matrix(0.94476176,0,0,0.94476176,-17.151905,161.463)">
      <path
         style="fill:#7bbbd7;fill-opacity:1;fill-rule:evenodd;stroke:#368cb2;stroke-width:0.07071795;stroke-linecap:butt;stroke-linejoin:miter;stroke-miterlimit:4;stroke-dasharray:none;stroke-opacity:1"
         d="m 106.76246,58.892234 c 0.10825,0.910323 3.82257,5.155114 1.13285,12.813177 -0.23142,0.658907 0.22834,0.419743 0.36248,0.193975 3.96564,-6.20474 -0.5107,-12.989137 -1.49533,-13.007152 z"
         id="path1479"
         inkscape:connector-curvature="0"
         sodipodi:nodetypes="cscc" />
      <path
         style="fill:#7bbbd7;fill-opacity:1;fill-rule:evenodd;stroke:#368cb2;stroke-width:0.07071795;stroke-linecap:round;stroke-linejoin:miter;stroke-miterlimit:4;stroke-dasharray:none;stroke-opacity:1"
         d="m 107.34779,70.75847 c -0.26357,-0.5024 -1.03466,2.26744 -0.30842,2.598308 0.72624,0.330869 2.6249,-0.930923 2.27082,-1.13904 -0.63538,0.21597 -1.22906,0.656836 -1.81409,0.53381 -0.24641,-0.133116 -0.21397,-1.112564 -0.14831,-1.993078 z"
         id="path1481"
         inkscape:connector-curvature="0"
         sodipodi:nodetypes="czccc" />
      <text
         transform="rotate(-85.936676)"
         id="text1485"
         y="109.67576"
         x="-66.232269"
         style="font-style:normal;font-weight:normal;font-size:5.36747694px;line-height:125%;font-family:sans-serif;letter-spacing:0px;word-spacing:0px;fill:#7bbbd7;fill-opacity:1;stroke:#368cb2;stroke-width:0.134;stroke-linecap:butt;stroke-linejoin:miter;stroke-miterlimit:4;stroke-dasharray:none;stroke-opacity:1"
         xml:space="preserve"><tspan
           style="fill:#7bbbd7;fill-opacity:1;stroke:#368cb2;stroke-width:0.134;stroke-miterlimit:4;stroke-dasharray:none;stroke-opacity:1"
           y="109.67576"
           x="-66.232269"
           id="tspan1483"
           sodipodi:role="line">prime</tspan></text>
    </g>
    <g
       transform="matrix(0.94476176,0,0,0.94476176,18.010672,161.463)"
       id="g1497">
      <path
         sodipodi:nodetypes="cscc"
         inkscape:connector-curvature="0"
         id="path1489"
         d="m 106.76246,58.892234 c 0.10825,0.910323 3.82257,5.155114 1.13285,12.813177 -0.23142,0.658907 0.22834,0.419743 0.36248,0.193975 3.96564,-6.20474 -0.5107,-12.989137 -1.49533,-13.007152 z"
         style="fill:#7bbbd7;fill-opacity:1;fill-rule:evenodd;stroke:#368cb2;stroke-width:0.07071795;stroke-linecap:butt;stroke-linejoin:miter;stroke-miterlimit:4;stroke-dasharray:none;stroke-opacity:1" />
      <path
         sodipodi:nodetypes="czccc"
         inkscape:connector-curvature="0"
         id="path1491"
         d="m 107.34779,70.75847 c -0.26357,-0.5024 -1.03466,2.26744 -0.30842,2.598308 0.72624,0.330869 2.6249,-0.930923 2.27082,-1.13904 -0.63538,0.21597 -1.22906,0.656836 -1.81409,0.53381 -0.24641,-0.133116 -0.21397,-1.112564 -0.14831,-1.993078 z"
         style="fill:#7bbbd7;fill-opacity:1;fill-rule:evenodd;stroke:#368cb2;stroke-width:0.07071795;stroke-linecap:round;stroke-linejoin:miter;stroke-miterlimit:4;stroke-dasharray:none;stroke-opacity:1" />
      <text
         xml:space="preserve"
         style="font-style:normal;font-weight:normal;font-size:5.36747694px;line-height:125%;font-family:sans-serif;letter-spacing:0px;word-spacing:0px;fill:#7bbbd7;fill-opacity:1;stroke:#368cb2;stroke-width:0.134;stroke-linecap:butt;stroke-linejoin:miter;stroke-miterlimit:4;stroke-dasharray:none;stroke-opacity:1"
         x="-66.232269"
         y="109.67576"
         id="text1495"
         transform="rotate(-85.936676)"><tspan
           sodipodi:role="line"
           id="tspan1493"
           x="-66.232269"
           y="109.67576"
           style="fill:#7bbbd7;fill-opacity:1;stroke:#368cb2;stroke-width:0.134;stroke-miterlimit:4;stroke-dasharray:none;stroke-opacity:1">prime</tspan></text>
    </g>
    <g
       id="g1521"
       transform="matrix(0.84566211,0,0,0.84566211,-129.43761,167.98142)">
      <circle
         r="3.9406769"
         cy="65.791908"
         cx="188.30428"
         id="circle1517"
         style="opacity:1;fill:#ffffff;fill-opacity:1;stroke:#999999;stroke-width:0.49439439;stroke-miterlimit:4;stroke-dasharray:none;stroke-dashoffset:0;stroke-opacity:1;paint-order:stroke fill markers" />
      <path
         style="fill:#333333;stroke:#808080;stroke-width:0.1;stroke-linecap:butt;stroke-linejoin:miter;stroke-miterlimit:4;stroke-dasharray:none;stroke-opacity:1"
         d="m 188.25267,63.887514 -1.74899,3.465043 3.59797,-0.04866 z"
         id="path1519"
         inkscape:connector-curvature="0"
         sodipodi:nodetypes="cccc" />
    </g>
    <g
       id="g9241"
       transform="matrix(0.60197445,0,0,0.66734284,-32.45288,179.54564)">
      <rect
         transform="matrix(1,0,0.53837017,0.84270847,0,0)"
         ry="0"
         y="71.837265"
         x="119.97904"
         height="6.532454"
         width="5.8490143"
         id="rect9216"
         style="opacity:1;fill:#f9f9f9;fill-opacity:1;stroke:#808080;stroke-width:0.10893343;stroke-miterlimit:4;stroke-dasharray:none;stroke-dashoffset:0;stroke-opacity:1;paint-order:stroke fill markers" />
      <rect
         style="opacity:1;fill:#f9f9f9;fill-opacity:1;stroke:#808080;stroke-width:0.10893343;stroke-miterlimit:4;stroke-dasharray:none;stroke-dashoffset:0;stroke-opacity:1;paint-order:stroke fill markers"
         id="rect9222"
         width="5.8490143"
         height="6.532454"
         x="204.36287"
         y="-84.902176"
         ry="0"
         transform="matrix(1,0,0.53837017,-0.84270847,0,0)" />
      <path
         sodipodi:nodetypes="ccccc"
         inkscape:connector-curvature="0"
         id="rect9228"
         transform="scale(0.26458333)"
         d="m 599.63749,228.80456 -11.46633,20.53092 11.46628,21.08134 13.39967,-20.80549 z"
         style="opacity:1;fill:#f9f9f9;fill-opacity:1;stroke:#808080;stroke-width:0.37795261;stroke-miterlimit:4;stroke-dasharray:none;stroke-dashoffset:0;stroke-opacity:1;paint-order:stroke fill markers" />
      <path
         sodipodi:nodetypes="ccc"
         inkscape:connector-curvature="0"
         id="path9233"
         d="m 161.73713,63.140452 -1.36201,-0.01177 -3.43073,5.230273"
         style="fill:none;stroke:#999999;stroke-width:0.26499999;stroke-linecap:round;stroke-linejoin:miter;stroke-miterlimit:4;stroke-dasharray:none;stroke-opacity:1" />
    </g>
    <g
       transform="matrix(0.85694398,0,0,0.85694398,-61.23691,167.23917)"
       id="g9247">
      <circle
         style="opacity:1;fill:#ffffff;fill-opacity:1;stroke:#999999;stroke-width:0.49439439;stroke-miterlimit:4;stroke-dasharray:none;stroke-dashoffset:0;stroke-opacity:1;paint-order:stroke fill markers"
         id="circle9243"
         cx="188.30428"
         cy="65.791908"
         r="3.9406769" />
      <path
         sodipodi:nodetypes="cccc"
         inkscape:connector-curvature="0"
         id="path9245"
         d="m 188.25267,63.887514 -1.74899,3.465043 3.59797,-0.04866 z"
         style="fill:#333333;stroke:#808080;stroke-width:0.1;stroke-linecap:butt;stroke-linejoin:miter;stroke-miterlimit:4;stroke-dasharray:none;stroke-opacity:1" />
    </g>
    <g
       transform="matrix(1.3702019,0,0,-1.7239943,14.312009,625.01048)"
       id="g1049">
      <path
         style="fill:none;fill-rule:evenodd;stroke:#000000;stroke-width:0.24645656px;stroke-linecap:butt;stroke-linejoin:miter;stroke-opacity:1"
         d="m 64.885587,217.05529 c 0,4.37036 0,4.37036 0,4.37036"
         id="path985"
         inkscape:connector-curvature="0" />
      <path
         inkscape:connector-curvature="0"
         id="path987"
         d="m 65.343608,217.05529 c 0,4.37036 0,4.37036 0,4.37036"
         style="fill:none;fill-rule:evenodd;stroke:#000000;stroke-width:0.18000001;stroke-linecap:butt;stroke-linejoin:miter;stroke-miterlimit:4;stroke-dasharray:none;stroke-opacity:1" />
      <path
         style="fill:none;fill-rule:evenodd;stroke:#000000;stroke-width:0.24645656px;stroke-linecap:butt;stroke-linejoin:miter;stroke-opacity:1"
         d="m 65.801627,217.05529 c 0,4.37036 0,4.37036 0,4.37036"
         id="path989"
         inkscape:connector-curvature="0" />
      <path
         inkscape:connector-curvature="0"
         id="path991"
         d="m 66.259644,217.05529 c 0,4.37036 0,4.37036 0,4.37036"
         style="fill:none;fill-rule:evenodd;stroke:#000000;stroke-width:0.18000001;stroke-linecap:butt;stroke-linejoin:miter;stroke-miterlimit:4;stroke-dasharray:none;stroke-opacity:1" />
      <path
         inkscape:connector-curvature="0"
         id="path993"
         d="m 66.717662,217.05529 c 0,3.4018 0,3.4018 0,3.4018"
         style="fill:none;fill-rule:evenodd;stroke:#000000;stroke-width:0.31;stroke-linecap:butt;stroke-linejoin:miter;stroke-miterlimit:4;stroke-dasharray:none;stroke-opacity:1" />
      <path
         style="fill:none;fill-rule:evenodd;stroke:#000000;stroke-width:0.21743824px;stroke-linecap:butt;stroke-linejoin:miter;stroke-opacity:1"
         d="m 67.175683,217.05529 c 0,3.4018 0,3.4018 0,3.4018"
         id="path995"
         inkscape:connector-curvature="0" />
      <path
         inkscape:connector-curvature="0"
         id="path997"
         d="m 67.633702,217.05529 c 0,3.4018 0,3.4018 0,3.4018"
         style="fill:none;fill-rule:evenodd;stroke:#000000;stroke-width:0.21743824px;stroke-linecap:butt;stroke-linejoin:miter;stroke-opacity:1" />
      <path
         style="fill:none;fill-rule:evenodd;stroke:#000000;stroke-width:0.18000001;stroke-linecap:butt;stroke-linejoin:miter;stroke-miterlimit:4;stroke-dasharray:none;stroke-opacity:1"
         d="m 68.218384,217.05529 c 0,3.4018 0,3.4018 0,3.4018"
         id="path999"
         inkscape:connector-curvature="0" />
      <path
         style="fill:none;fill-rule:evenodd;stroke:#000000;stroke-width:0.21743824px;stroke-linecap:butt;stroke-linejoin:miter;stroke-opacity:1"
         d="m 68.549741,217.05529 c 0,3.4018 0,3.4018 0,3.4018"
         id="path1001"
         inkscape:connector-curvature="0" />
      <path
         inkscape:connector-curvature="0"
         id="path1003"
         d="m 69.007755,217.05529 c 0,3.4018 0,3.4018 0,3.4018"
         style="fill:none;fill-rule:evenodd;stroke:#000000;stroke-width:0.21743824px;stroke-linecap:butt;stroke-linejoin:miter;stroke-opacity:1" />
      <path
         style="fill:none;fill-rule:evenodd;stroke:#000000;stroke-width:0.21743824px;stroke-linecap:butt;stroke-linejoin:miter;stroke-opacity:1"
         d="m 69.465781,217.05529 c 0,3.4018 0,3.4018 0,3.4018"
         id="path1005"
         inkscape:connector-curvature="0" />
      <path
         inkscape:connector-curvature="0"
         id="path1007"
         d="m 69.923795,217.05529 c 0,4.37036 0,4.37036 0,4.37036"
         style="fill:none;fill-rule:evenodd;stroke:#000000;stroke-width:0.31;stroke-linecap:butt;stroke-linejoin:miter;stroke-miterlimit:4;stroke-dasharray:none;stroke-opacity:1" />
      <path
         inkscape:connector-curvature="0"
         id="path1009"
         d="m 70.323355,217.05529 c 0,4.37036 0,4.37036 0,4.37036"
         style="fill:none;fill-rule:evenodd;stroke:#000000;stroke-width:0.24645656px;stroke-linecap:butt;stroke-linejoin:miter;stroke-opacity:1" />
      <path
         style="fill:none;fill-rule:evenodd;stroke:#000000;stroke-width:0.2;stroke-linecap:butt;stroke-linejoin:miter;stroke-miterlimit:4;stroke-dasharray:none;stroke-opacity:1"
         d="m 70.990172,217.05529 c 0,4.37036 0,4.37036 0,4.37036"
         id="path1011"
         inkscape:connector-curvature="0" />
      <path
         inkscape:connector-curvature="0"
         id="path1013"
         d="m 71.297851,217.05529 c 0,4.37036 0,4.37036 0,4.37036"
         style="fill:none;fill-rule:evenodd;stroke:#000000;stroke-width:0.24645656px;stroke-linecap:butt;stroke-linejoin:miter;stroke-opacity:1" />
      <path
         style="fill:none;fill-rule:evenodd;stroke:#000000;stroke-width:0.18000001;stroke-linecap:butt;stroke-linejoin:miter;stroke-miterlimit:4;stroke-dasharray:none;stroke-opacity:1"
         d="m 71.755872,217.05529 c 0,3.4018 0,3.4018 0,3.4018"
         id="path1015"
         inkscape:connector-curvature="0" />
      <path
         style="fill:none;fill-rule:evenodd;stroke:#000000;stroke-width:0.18000001;stroke-linecap:butt;stroke-linejoin:miter;stroke-miterlimit:4;stroke-dasharray:none;stroke-opacity:1"
         d="m 72.347525,217.05529 c 0,3.4018 0,3.4018 0,3.4018"
         id="path1017"
         inkscape:connector-curvature="0" />
      <path
         inkscape:connector-curvature="0"
         id="path1019"
         d="m 72.67191,217.05529 c 0,3.4018 0,3.4018 0,3.4018"
         style="fill:none;fill-rule:evenodd;stroke:#000000;stroke-width:0.21743824px;stroke-linecap:butt;stroke-linejoin:miter;stroke-opacity:1" />
      <path
         style="fill:none;fill-rule:evenodd;stroke:#000000;stroke-width:0.31;stroke-linecap:butt;stroke-linejoin:miter;stroke-miterlimit:4;stroke-dasharray:none;stroke-opacity:1"
         d="m 73.12993,217.05529 c 0,3.4018 0,3.4018 0,3.4018"
         id="path1021"
         inkscape:connector-curvature="0" />
      <path
         inkscape:connector-curvature="0"
         id="path1023"
         d="m 73.58795,217.05529 c 0,3.4018 0,3.4018 0,3.4018"
         style="fill:none;fill-rule:evenodd;stroke:#000000;stroke-width:0.21743824px;stroke-linecap:butt;stroke-linejoin:miter;stroke-opacity:1" />
      <path
         inkscape:connector-curvature="0"
         id="path1025"
         d="m 74.04597,217.05529 c 0,3.4018 0,3.4018 0,3.4018"
         style="fill:none;fill-rule:evenodd;stroke:#000000;stroke-width:0.21743824px;stroke-linecap:butt;stroke-linejoin:miter;stroke-opacity:1" />
      <path
         style="fill:none;fill-rule:evenodd;stroke:#000000;stroke-width:0.21743824px;stroke-linecap:butt;stroke-linejoin:miter;stroke-opacity:1"
         d="m 74.503991,217.05529 c 0,3.4018 0,3.4018 0,3.4018"
         id="path1027"
         inkscape:connector-curvature="0" />
      <path
         inkscape:connector-curvature="0"
         id="path1029"
         d="m 74.962002,217.05529 c 0,4.37036 0,4.37036 0,4.37036"
         style="fill:none;fill-rule:evenodd;stroke:#000000;stroke-width:0.24645656px;stroke-linecap:butt;stroke-linejoin:miter;stroke-opacity:1" />
      <path
         style="fill:none;fill-rule:evenodd;stroke:#000000;stroke-width:0.18000001;stroke-linecap:butt;stroke-linejoin:miter;stroke-miterlimit:4;stroke-dasharray:none;stroke-opacity:1"
         d="m 75.573583,217.05529 c 0,4.37036 0,4.37036 0,4.37036"
         id="path1031"
         inkscape:connector-curvature="0" />
      <path
         inkscape:connector-curvature="0"
         id="path1033"
         d="m 75.878049,217.05529 c 0,4.37036 0,4.37036 0,4.37036"
         style="fill:none;fill-rule:evenodd;stroke:#000000;stroke-width:0.24645656px;stroke-linecap:butt;stroke-linejoin:miter;stroke-opacity:1" />
      <path
         style="fill:none;fill-rule:evenodd;stroke:#000000;stroke-width:0.24645656px;stroke-linecap:butt;stroke-linejoin:miter;stroke-opacity:1"
         d="m 76.336069,217.05529 c 0,4.37036 0,4.37036 0,4.37036"
         id="path1035"
         inkscape:connector-curvature="0" />
      <path
         inkscape:connector-curvature="0"
         id="path1037"
         d="m 76.794088,217.05529 c 0,4.37036 0,4.37036 0,4.37036"
         style="fill:none;fill-rule:evenodd;stroke:#000000;stroke-width:0.31;stroke-linecap:butt;stroke-linejoin:miter;stroke-miterlimit:4;stroke-dasharray:none;stroke-opacity:1" />
      <rect
         style="opacity:1;fill:none;fill-opacity:1;fill-rule:nonzero;stroke:#1a1a1a;stroke-width:0.07623883;stroke-linecap:round;stroke-miterlimit:4;stroke-dasharray:none;stroke-opacity:1"
         id="rect1039"
         width="13.252926"
         height="5.3862977"
         x="64.220444"
         y="216.56425"
         ry="0.8216387" />
      <path
         inkscape:connector-curvature="0"
         id="path1041"
         d="m 67.928995,217.05529 c 0,3.4018 0,3.4018 0,3.4018"
         style="fill:none;fill-rule:evenodd;stroke:#000000;stroke-width:0.18000001;stroke-linecap:butt;stroke-linejoin:miter;stroke-miterlimit:4;stroke-dasharray:none;stroke-opacity:1" />
      <path
         inkscape:connector-curvature="0"
         id="path1043"
         d="m 72.055199,217.05529 c 0,3.4018 0,3.4018 0,3.4018"
         style="fill:none;fill-rule:evenodd;stroke:#000000;stroke-width:0.18000001;stroke-linecap:butt;stroke-linejoin:miter;stroke-miterlimit:4;stroke-dasharray:none;stroke-opacity:1" />
      <path
         inkscape:connector-curvature="0"
         id="path1045"
         d="m 70.664437,217.05529 c 0,4.37036 0,4.37036 0,4.37036"
         style="fill:none;fill-rule:evenodd;stroke:#000000;stroke-width:0.2;stroke-linecap:butt;stroke-linejoin:miter;stroke-miterlimit:4;stroke-dasharray:none;stroke-opacity:1" />
      <path
         inkscape:connector-curvature="0"
         id="path1047"
         d="m 75.278289,217.05529 c 0,4.37036 0,4.37036 0,4.37036"
         style="fill:none;fill-rule:evenodd;stroke:#000000;stroke-width:0.18000001;stroke-linecap:butt;stroke-linejoin:miter;stroke-miterlimit:4;stroke-dasharray:none;stroke-opacity:1" />
    </g>
  </g>
</svg>
