<?xml version="1.0" encoding="UTF-8" standalone="no"?>
<!-- Created with Inkscape (http://www.inkscape.org/) -->

<svg
   xmlns:dc="http://purl.org/dc/elements/1.1/"
   xmlns:cc="http://creativecommons.org/ns#"
   xmlns:rdf="http://www.w3.org/1999/02/22-rdf-syntax-ns#"
   xmlns:svg="http://www.w3.org/2000/svg"
   xmlns="http://www.w3.org/2000/svg"
   xmlns:sodipodi="http://sodipodi.sourceforge.net/DTD/sodipodi-0.dtd"
   xmlns:inkscape="http://www.inkscape.org/namespaces/inkscape"
   width="64mm"
   height="64mm"
   viewBox="0 0 64 64"
   version="1.1"
   id="svg8"
   sodipodi:docname="isenguard.svg"
   inkscape:version="0.92.2 (5c3e80d, 2017-08-06)">
  <defs
     id="defs2" />
  <sodipodi:namedview
     id="base"
     pagecolor="#ffffff"
     bordercolor="#666666"
     borderopacity="1.0"
     inkscape:pageopacity="0.0"
     inkscape:pageshadow="2"
     inkscape:zoom="0.49497475"
     inkscape:cx="387.80511"
     inkscape:cy="581.82148"
     inkscape:document-units="mm"
     inkscape:current-layer="layer1"
     showgrid="false"
     inkscape:window-width="1260"
     inkscape:window-height="787"
     inkscape:window-x="35"
     inkscape:window-y="89"
     inkscape:window-maximized="0" />
  <metadata
     id="metadata5">
    <rdf:RDF>
      <cc:Work
         rdf:about="">
        <dc:format>image/svg+xml</dc:format>
        <dc:type
           rdf:resource="http://purl.org/dc/dcmitype/StillImage" />
        <dc:title></dc:title>
      </cc:Work>
    </rdf:RDF>
  </metadata>
  <g
     inkscape:label="Layer 1"
     inkscape:groupmode="layer"
     id="layer1"
     transform="translate(0,-233)">
    <g
       id="g896"
       transform="matrix(0.35780192,0,0,0.35780192,-37.3853,239.13169)">
      <path
         inkscape:connector-curvature="0"
         id="path830"
         d="m 185.62082,149.14391 c -31.0514,-1.97493 -59.13682,-25.60168 -66.33224,-55.889949 -6.19474,-23.92455 0.45424,-50.676187 17.32935,-68.775788 16.31301,-22.9283509 46.18243,-34.851143 73.79112,-29.532244 7.32462,1.3883959 14.56789,3.7035969 21.07472,7.355968 -6.14909,6.5855904 -12.3244,13.156409 -18.65424,19.567278 -21.64454,-8.717841 -48.86518,-3.04198 -63.80531,15.242465 -14.56518,21.724133 -11.33476,53.208299 7.5157,71.39483 18.17799,18.94193 49.80281,22.21663 71.55142,7.56499 7.72,-4.56561 13.49342,-11.734 16.46883,-20.169335 5.44717,-13.647075 5.17367,-29.308222 -0.2912,-42.906777 6.04509,-6.478465 12.49364,-12.611839 18.83365,-18.814135 14.18588,26.374594 9.74415,61.213841 -10.3998,83.352837 -14.1725,20.05232 -38.4209,32.80338 -63.10975,31.71362 -1.32402,-0.0173 -2.65115,-0.0231 -3.97225,-0.10376 z m 16.73215,-39.24778 C 196.78536,104.7555 192.57521,97.141663 184.01971,99.047166 173.02363,97.293893 165.08806,85.737139 167.29587,74.843773 159.59785,67.115456 151.82701,59.458514 144.21428,51.646099 c 6.65542,-6.823847 13.43148,-13.530064 20.20538,-20.236368 7.51643,7.422389 14.83685,15.060434 22.52315,22.297876 6.66158,-0.494978 12.50773,-0.487652 16.59234,-6.809614 13.19095,-12.133748 26.29608,-24.361833 39.56291,-36.412494 4.1899,5.121719 10.82303,10.367771 13.46878,15.593963 -14.49347,14.392841 -29.07161,28.700123 -43.59906,43.058618 1.79133,3.913931 -2.11313,9.124465 2.09418,11.6792 6.28834,6.288461 12.57667,12.576929 18.86501,18.865397 -6.8919,7.012333 -13.82138,13.988643 -20.81692,20.897453 -3.62125,-3.52512 -7.17665,-7.11764 -10.75708,-10.684 z"
         style="fill:#f38435;stroke-width:0.07710715" />
      <path
         sodipodi:nodetypes="ccccccccccccccccccccccccccc"
         inkscape:connector-curvature="0"
         id="path828"
         d="m 186.62322,149.18245 c -28.05348,-1.5908 -54.16733,-20.46876 -64.27395,-46.72038 -10.38802,-25.422877 -5.13473,-56.456591 13.3995,-76.800851 -15.74902,22.505695 -17.59592,53.750927 -4.32975,77.844731 13.15225,24.98301 41.40575,40.85073 69.59745,39.00246 18.75421,-0.91395 36.84072,-9.37515 49.83728,-22.87462 -14.62196,19.93617 -39.62441,31.20307 -64.23053,29.54866 z m 26.48683,-28.60232 c -3.58727,-3.58727 -16.81132,-16.81073 -20.39859,-20.39799 -12.15376,2.61187 -25.99847,-9.022948 -25.63604,-21.461737 0.22045,-3.87663 -1.31573,-5.515155 -3.55393,-7.728171 -6.4183,-6.441084 -12.89496,-12.825168 -19.23011,-19.348171 1.94144,-2.607639 0,0 3.43109,-3.395762 12.05566,11.807356 17.01607,16.481521 24.18775,23.653204 -1.24928,12.158955 9.79918,23.720316 22.07643,22.482279 2.71931,-0.523911 3.9197,2.964041 5.93896,4.300148 5.82698,5.84071 11.69135,11.64469 17.46338,17.53977 z m 25.91609,-13.87928 c 10.52077,-15.617275 12.47267,-36.400578 5.27317,-53.770934 2.94397,-3.39888 0,0 5.86999,-5.498594 5.84197,22.115797 2.42543,45.02652 -11.14316,59.269528 z M 150.80309,34.567096 c 13.56468,-19.277677 41.68307,-28.5621609 67.79283,-18.72537 l -5.76639,6.027449 -17.53176,-4.002207 c -16.43374,-1.177924 -32.8103,5.147983 -44.49468,16.700128 z"
         style="fill:#9e5025;stroke-width:0.07710715" />
    </g>
  </g>
</svg>
