<?xml version="1.0" encoding="UTF-8" standalone="no"?>
<!-- Generator: Adobe Illustrator 13.0.0, SVG Export Plug-In . SVG Version: 6.00 Build 14948)  -->

<svg
   xmlns:dc="http://purl.org/dc/elements/1.1/"
   xmlns:cc="http://creativecommons.org/ns#"
   xmlns:rdf="http://www.w3.org/1999/02/22-rdf-syntax-ns#"
   xmlns:svg="http://www.w3.org/2000/svg"
   xmlns="http://www.w3.org/2000/svg"
   xmlns:sodipodi="http://sodipodi.sourceforge.net/DTD/sodipodi-0.dtd"
   xmlns:inkscape="http://www.inkscape.org/namespaces/inkscape"
   version="1.1"
   id="Layer_1"
   x="0px"
   y="0px"
   width="16px"
   height="16px"
   viewBox="0 0 331.95352 331.95353"
   enable-background="new 0 0 665 490"
   xml:space="preserve"
   sodipodi:docname="rde.svg"
   inkscape:version="0.92.2 (5c3e80d, 2017-08-06)"><metadata
     id="metadata135"><rdf:RDF><cc:Work
         rdf:about=""><dc:format>image/svg+xml</dc:format><dc:type
           rdf:resource="http://purl.org/dc/dcmitype/StillImage" /><dc:title /></cc:Work></rdf:RDF></metadata><defs
     id="defs133" /><sodipodi:namedview
     pagecolor="#ffffff"
     bordercolor="#666666"
     borderopacity="1"
     objecttolerance="10"
     gridtolerance="10"
     guidetolerance="10"
     inkscape:pageopacity="0"
     inkscape:pageshadow="2"
     inkscape:window-width="1446"
     inkscape:window-height="926"
     id="namedview131"
     showgrid="false"
     fit-margin-top="0"
     fit-margin-left="0"
     fit-margin-right="0"
     fit-margin-bottom="0"
     inkscape:zoom="10.482497"
     inkscape:cx="5.7940858"
     inkscape:cy="5.9174678"
     inkscape:window-x="85"
     inkscape:window-y="23"
     inkscape:window-maximized="0"
     inkscape:current-layer="Layer_1" /><g
     id="g3831"
     transform="translate(0,-48.271257)"><path
       style="fill:#57a8dd"
       inkscape:connector-curvature="0"
       inkscape:export-ydpi="9.2543459"
       inkscape:export-xdpi="9.2543459"
       id="path120"
       d="m 60.633,331.62151 h 41.336 c 0,0 11.664,-19 15.664,-22.334 4,-3.334 5,-2.334 5.668,0 0.668,2.334 -7.332,22.334 -7.332,22.334 l 38.332,0.332 5.25,-26.416 14.75,-0.916 c 0,0 0.703,-11.922 -5.5,-48.334 -5.75,-33.75 -15.832,-52 -15.832,-52 0,0 -20.721,10.483 -42.668,28.875 -22.375,18.75 -26,38.793 -26,38.793 l -27.668,18.998 25,2.668 z" /><path
       style="fill:#57a8dd"
       inkscape:connector-curvature="0"
       inkscape:export-ydpi="9.2543459"
       inkscape:export-xdpi="9.2543459"
       id="path122"
       d="m 167.551,197.53851 c 0,0 12.082,-6.91699 29,-11.49999 17.938,-4.859 41.77,-4.042 54.75,1.75 16.25,7.25 16.75,23.99999 16.75,23.99999 0,0 15.25,-7.25 16.75,-20.24999 1.035,-8.972 35.25,-22 38.25,-20.5 3,1.5 7,11.25 4.5,17.75 -2.5,6.5 -8,11.24999 -8,11.24999 0,0 11,-0.5 12,0.75 1,1.25 0,9.625 -1.5,11.125 -1.5,1.5 -18.873,3.129 -23.25,6 -4,2.625 -11.125,16.25 -21.125,25.875 -9.074,8.734 -24.875,16.125 -26.125,19.375 -1.25,3.25 6.498,13.45101 11.25,35.627 3.75,17.5 6.168,32.25 6.168,32.25 l -35.418,-0.082 c 0,0 -6.008,-47.307 -12.75,-47.668 -4.666,-0.25 -3.416,47.584 -3.416,47.584 l -36.166,-0.084 c 0,0 4.332,-30.75 -5.418,-79.5 -8.351,-41.75499 -16.25,-53.752 -16.25,-53.752 z" /><path
       style="fill:#fcb415"
       inkscape:connector-curvature="0"
       inkscape:export-ydpi="9.2543459"
       inkscape:export-xdpi="9.2543459"
       id="path124"
       d="m 206.387,96.542525 59.582,16.079995 -21.047,56.984 -5.355,-9.674 c 0,0 -51.936,26.405 -72.035,37.35499 -6.84,-18.40399 -15.137,-36.23999 -24.436,-53.51999 18.885,-10.53 68.617,-35.736 68.617,-35.736 z" /><path
       style="fill:#fcb415"
       inkscape:connector-curvature="0"
       inkscape:export-ydpi="9.2543459"
       inkscape:export-xdpi="9.2543459"
       id="path126"
       d="m 55.305,190.24852 c 0,0 48.945,-26.311 73.516,-39.3 9.66,16.92 17.4,34.845 23.91,53.189 -7.635,3.721 -15.164,7.68 -22.379,12.165 -51.047,27.812 -107.219,57.653 -107.219,57.653 l -3.075,-6.959 59.009,-31.6 z" /><path
       style="fill:#4991ce"
       inkscape:connector-curvature="0"
       inkscape:export-ydpi="9.2543459"
       inkscape:export-xdpi="9.2543459"
       id="path128"
       d="m 0,185.97252 c 2.102,-1.8 4.171,-3.585 6.256,-5.399 2.73,16.66499 14.655,32.234 31.484,36.29999 9.871,3.074 29.811,-3.336 29.811,-3.336 l 3.563,6.688 c -12.434,4.216 -29.082,6.009 -41.518,1.327 -14.835,-6.27 -25.785,-20.04 -29.596,-35.57999 z" /></g></svg>